<svg id="Group_60" data-name="Group 60" xmlns="http://www.w3.org/2000/svg" xmlns:xlink="http://www.w3.org/1999/xlink" width="22.413" height="22.38" viewBox="0 0 22.413 22.38">
  <defs>
    <clipPath id="clip-path">
      <rect id="Rectangle_23" data-name="Rectangle 23" width="22.413" height="22.38" fill="#fff"/>
    </clipPath>
  </defs>
  <g id="Group_60-2" data-name="Group 60" clip-path="url(#clip-path)">
    <path id="Path_15" data-name="Path 15" d="M5.689,120.076a5.1,5.1,0,0,0-.014,1.618l-.084.141A11.162,11.162,0,0,1,.879,107.817c.278-.665.739-2.031,1.687-1.543.869.447.041,1.47-.207,2.046a9.708,9.708,0,0,0,3.33,11.757" transform="translate(0 -100.974)" fill="#fff"/>
    <path id="Path_16" data-name="Path 16" d="M386.4,82.587c-.191.146-.2-.142-.2-.307a7.584,7.584,0,0,1,.106-1.94,9.766,9.766,0,0,0,0-11.333,7.387,7.387,0,0,1-.11-1.871q-.025-.441.208-.376a11.161,11.161,0,0,1,0,15.827" transform="translate(-367.281 -63.485)" fill="#fff"/>
    <path id="Path_17" data-name="Path 17" d="M113.022,390.219a9.754,9.754,0,0,0,7.523,1.514c0,.139-.025.341-.184.379a4.4,4.4,0,0,0,0,.92c.133,0,.309.128.229.264a10.889,10.889,0,0,1-7.669-1.319,8.392,8.392,0,0,1-.049-1.539c.008-.087.013-.249.147-.219" transform="translate(-107.333 -371.117)" fill="#fff"/>
    <path id="Path_18" data-name="Path 18" d="M212.427,191.5a.794.794,0,0,1,.992.744c.178,2.019-.134,4.3-.006,6.348a.784.784,0,0,1-1.561-.043c-.189-2.009.145-4.312,0-6.352a.837.837,0,0,1,.573-.7" transform="translate(-201.426 -182.108)" fill="#fff"/>
    <path id="Path_19" data-name="Path 19" d="M269.951,346.625a10.73,10.73,0,0,1-5.862,3.078l-.2-.2-.1.146a3.335,3.335,0,0,1,0-1.244c.017-.014.087.024.092.018.038-.048.009-.245.152-.287a9.9,9.9,0,0,0,5.813-3.761c.036.663-.047,1.372,0,2.03.006.091-.012.183.1.217" transform="translate(-250.829 -327.522)" fill="#fff"/>
    <path id="Path_20" data-name="Path 20" d="M300.568,13.764a.248.248,0,0,0-.1.219c-.06.644.047,1.375,0,2.028a10.1,10.1,0,0,0-4.445-3.371l-.1-.074.045-1.47.1-.068a10.677,10.677,0,0,1,4.494,2.736" transform="translate(-281.446 -10.488)" fill="#fff"/>
    <path id="Path_21" data-name="Path 21" d="M111.488,1.048l.083.118a4.794,4.794,0,0,0-.013,1.308c.061-.015.091.028.125.088a10.372,10.372,0,0,0-2.686.66,16.133,16.133,0,0,1-1.494.7.787.787,0,0,1-.876-1.071c.143-.363.857-.675,1.212-.84a10.861,10.861,0,0,1,3.648-.968" transform="translate(-101.354 -0.997)" fill="#fff"/>
    <path id="Path_22" data-name="Path 22" d="M210.261.539l-.049,1.612a10.506,10.506,0,0,0-4.25-.586c-.18.022-.216.008-.239-.175a5.808,5.808,0,0,1,.044-1.34,10.835,10.835,0,0,1,4.494.488" transform="translate(-195.632 0)" fill="#fff"/>
    <path id="Path_23" data-name="Path 23" d="M209.047,122a1.047,1.047,0,0,1,.083,2.092,1.047,1.047,0,0,1-.083-2.092" transform="translate(-197.896 -116.025)" fill="#fff"/>
  </g>
</svg>
