<svg id="Component_18_1" data-name="Component 18 – 1" xmlns="http://www.w3.org/2000/svg" width="38.016" height="38.016" viewBox="0 0 38.016 38.016">
  <path id="Path_11" data-name="Path 11" d="M662.03,38.065H659.8a13.15,13.15,0,0,0-1.437-.159,19.1,19.1,0,0,1-16.292-16.3,13.136,13.136,0,0,0-.159-1.437c.03-.738-.041-1.49,0-2.227.9-16.251,20.9-23.923,32.466-12.318,11.55,11.588,3.871,31.538-12.351,32.44M660.011,1.259a17.809,17.809,0,1,0,16.182,26.954c7.314-12.169-2.086-27.736-16.182-26.954" transform="translate(-641.902 -0.049)" fill="#fff"/>
  <path id="Path_12" data-name="Path 12" d="M670.036,14.77a13.4,13.4,0,1,1-11.641,20,13.439,13.439,0,0,1,11.641-20M670.952,16a12.18,12.18,0,0,0-10.54,4.752,21.259,21.259,0,0,1,6.633,2.016c.665.328,1.451.928,2.073,1.194a.373.373,0,0,0,.27.052A12.992,12.992,0,0,0,670.952,16M682.16,26.771a12.223,12.223,0,0,0-10.021-10.617,13.2,13.2,0,0,1-.761,6.4,21.171,21.171,0,0,1-1.063,2.209l2.457,2.077L674.7,28.98a13.814,13.814,0,0,1,7.461-2.209m-24.2,3.193a12.412,12.412,0,0,0,9.762-3.786c.151-.159.894-.993.849-1.143a19.97,19.97,0,0,0-8.925-3.166,12.409,12.409,0,0,0-1.686,8.1m14,3.389a.619.619,0,0,1-1.056-.569,10.444,10.444,0,0,1,1.118-1.485c.51-.574,1.163-1.067,1.642-1.636a21.93,21.93,0,0,0-4.016-3.93,13.415,13.415,0,0,1-11.393,5.42,12.127,12.127,0,0,0,10.391,9.133,15.931,15.931,0,0,1,.5-3.7,8.249,8.249,0,0,1,.462-1.3.6.6,0,0,1,1.05.43,16.19,16.19,0,0,0-.823,4.641,11.86,11.86,0,0,0,7.712-2.575,19.56,19.56,0,0,0-2.95-6.832.515.515,0,0,1-.087-.246c-.143-.11-1.477,1.27-1.634,1.446-.295.33-.638.946-.915,1.2m10.27-5.394A12.228,12.228,0,0,0,675.409,30a23.308,23.308,0,0,1,2.649,5.143c.208.571.328,1.171.575,1.725a12.191,12.191,0,0,0,3.6-8.909" transform="translate(-651.046 -9.174)" fill="#fff"/>
</svg>
