<svg id="Component_16_1" data-name="Component 16 – 1" xmlns="http://www.w3.org/2000/svg" width="38.016" height="38.054" viewBox="0 0 38.016 38.054">
  <path id="Path_1" data-name="Path 1" d="M38.016,17.84v2.376a11.052,11.052,0,0,0-.159,1.363A19.1,19.1,0,0,1,21.55,37.88a10.978,10.978,0,0,0-1.364.159c-.786-.034-1.594.046-2.377,0C.982,37.055-6.262,15.921,6.482,4.7,18.289-5.7,37.1,2.258,38.016,17.84M22.564,36.554A17.96,17.96,0,0,0,36.827,20.847C38.277,5.763,21.5-4.356,8.915,4.234-3.141,12.462-.768,31,12.942,35.887a16.965,16.965,0,0,0,8.475.821l.048-13.1a.433.433,0,0,1,.4-.345c.522-.082,3.033.1,3.231-.038l.887-3.606H22.006a.579.579,0,0,1-.221-1.112c1.388.111,3.024-.157,4.381,0,.753.086,1,.761.92,1.44a23.889,23.889,0,0,1-1.074,3.9,1.281,1.281,0,0,1-.887.525H22.564Z" transform="translate(0 0)" fill="#fff"/>
  <path id="Path_2" data-name="Path 2" d="M43.506,23.443V19.915l-.111-.111H39.383a6.737,6.737,0,0,0-2.706.934c-3.65,2.3-2.713,6.322-2.831,10.018-.008.206-.4.411-.555.411h-4.2v3.527l.111.111h4.309c.138,0,.371.319.336.481l0,10.847a.568.568,0,0,1-.951.312,3.231,3.231,0,0,1-.168-.39V35.919H29.056c-.535,0-1.023-.646-1.077-1.151a23.862,23.862,0,0,1,.008-3.63,1.53,1.53,0,0,1,.288-.731,3.4,3.4,0,0,1,.484-.354h3.975c.094-2.583-.395-5.261.879-7.625a7.267,7.267,0,0,1,5.99-3.74,29.158,29.158,0,0,1,3.867,0,1.225,1.225,0,0,1,1.154,1.223,25.44,25.44,0,0,1,0,3.422c-.175,2.045-2.692.853-4.012,1.336s-.472,2.6-.794,3.662a.561.561,0,0,1-1.01.143,21.129,21.129,0,0,1-.058-2.993,2.45,2.45,0,0,1,2.121-2.039Z" transform="translate(-17.302 -11.543)" fill="#fff"/>
</svg>
