<svg id="Group_69" data-name="Group 69" xmlns="http://www.w3.org/2000/svg" xmlns:xlink="http://www.w3.org/1999/xlink" width="21.033" height="21.16" viewBox="0 0 21.033 21.16">
  <defs>
    <clipPath id="clip-path">
      <rect id="Rectangle_29" data-name="Rectangle 29" width="21.033" height="21.16" fill="#fff"/>
    </clipPath>
  </defs>
  <g id="Group_69-2" data-name="Group 69" clip-path="url(#clip-path)">
    <path id="Path_102" data-name="Path 102" d="M10.15.019a3.727,3.727,0,0,1,2.465.605L19.9,6.375a3.856,3.856,0,0,1,1.133,2.311l-.008,9.293a3.724,3.724,0,0,1-3.264,3.181l-14.464,0A3.722,3.722,0,0,1,.073,17.888c.18-2.988-.233-6.246,0-9.2A3.838,3.838,0,0,1,1.233,6.352L8.492.624A3.79,3.79,0,0,1,10.15.019m.2,1.034a2.939,2.939,0,0,0-1.608.7C6.4,3.45,4.2,5.465,1.871,7.187a2.876,2.876,0,0,0-.765,1.7c.172,2.861-.222,5.978,0,8.809a2.684,2.684,0,0,0,2.388,2.433l14.07,0a2.684,2.684,0,0,0,2.427-2.344c-.159-2.889.232-6.042.008-8.9a2.9,2.9,0,0,0-.764-1.7L11.976,1.46a2.821,2.821,0,0,0-1.629-.407" transform="translate(0 0)" fill="#fff"/>
    <path id="Path_103" data-name="Path 103" d="M150.766,333.465l5.252-.012a.542.542,0,1,1,0,1.083c-1.6.179-3.528-.134-5.166,0a.537.537,0,0,1-.086-1.071" transform="translate(-142.882 -317.017)" fill="#fff"/>
  </g>
</svg>
