<svg id="Component_15_1" data-name="Component 15 – 1" xmlns="http://www.w3.org/2000/svg" width="38.016" height="38.016" viewBox="0 0 38.016 38.016">
  <path id="Path_3" data-name="Path 3" d="M198.491,17.938v2.227a13.157,13.157,0,0,0-.159,1.437,19.1,19.1,0,0,1-16.3,16.292,13.064,13.064,0,0,0-1.437.159c-.738-.03-1.491.041-2.228,0-16.251-.9-23.923-20.9-12.318-32.466,11.588-11.55,31.538-3.871,32.44,12.351M178.576,1.259A17.809,17.809,0,1,0,194.764,28.2C202.08,16.039,192.677.477,178.576,1.259" transform="translate(-160.475 -0.05)" fill="#fff"/>
  <path id="Path_4" data-name="Path 4" d="M183.861,19.011l14.6-.021a5.093,5.093,0,0,1,4.566,4.565c-.257,4.69.347,9.754,0,14.4a5.087,5.087,0,0,1-4.571,4.635c-4.692-.257-9.758.346-14.406,0a5.088,5.088,0,0,1-4.637-4.569l.009-14.538a5.072,5.072,0,0,1,4.43-4.478m.223,1.188a3.872,3.872,0,0,0-3.465,3.513c.235,4.565-.346,9.5-.013,14.022a3.893,3.893,0,0,0,3.675,3.674c4.484.33,9.366-.255,13.891,0a3.893,3.893,0,0,0,3.676-3.674c.33-4.482-.255-9.362,0-13.886a3.9,3.9,0,0,0-3.605-3.67Z" transform="translate(-172.219 -11.79)" fill="#fff"/>
  <path id="Path_5" data-name="Path 5" d="M204.722,35.511A6.276,6.276,0,0,1,206.1,42.29c-.191.451-.389,1.01-1,.825-.749-.226-.07-1.316.058-1.767,1.6-5.638-6.04-8.859-9.006-4.1a5.01,5.01,0,0,0,6.073,7.332c.495-.192,1-.74,1.489-.3.913.832-1.391,1.575-1.947,1.7a6.2,6.2,0,1,1,2.957-10.464" transform="translate(-181.36 -20.938)" fill="#fff"/>
  <path id="Path_6" data-name="Path 6" d="M224.761,26.907a1.591,1.591,0,0,1,0,3.182,1.591,1.591,0,1,1,0-3.182" transform="translate(-199.331 -16.697)" fill="#fff"/>
</svg>
