<svg id="Group_50" data-name="Group 50" xmlns="http://www.w3.org/2000/svg" xmlns:xlink="http://www.w3.org/1999/xlink" width="39.188" height="35.621" viewBox="0 0 39.188 35.621">
  <defs>
    <clipPath id="clip-path">
      <rect id="Rectangle_21" data-name="Rectangle 21" width="39.188" height="35.621" fill="#fff"/>
    </clipPath>
  </defs>
  <g id="Group_49" data-name="Group 49" clip-path="url(#clip-path)">
    <path id="Path_13" data-name="Path 13" d="M39.188,9.162v1.762c-.5,6.921-8.141,15.351-13.024,19.96a44.258,44.258,0,0,1-4.956,4.238c-2.266,1.506-4.278-.747-5.926-2.17C10.117,28.5,2.18,20.119.44,13.469-.785,8.784.5,3.809,4.888,1.334A11.119,11.119,0,0,1,19.536,5.254c.111.028.126-.07.179-.126.423-.45.814-1.148,1.275-1.637,6.061-6.428,17.5-3.525,18.2,5.671" transform="translate(0 0)" fill="#fff"/>
  </g>
</svg>
