<svg xmlns="http://www.w3.org/2000/svg" width="321.885" height="28.247" viewBox="0 0 321.885 28.247">
  <g id="Group_73" data-name="Group 73" transform="translate(-841.115 476.08)">
    <g id="Group_72" data-name="Group 72">
      <path id="Path_93" data-name="Path 93" d="M174.478,196.5H150.32v28.238h6.467V213.731h17.69c2.243,0,3.873-.432,4.873-1.3a5.191,5.191,0,0,0,1.513-4.152v-6.305a5.216,5.216,0,0,0-1.513-4.179Q177.851,196.5,174.478,196.5Zm.054,10.124a2.083,2.083,0,0,1-.631,1.747,3.937,3.937,0,0,1-2.342.5H156.787v-7.485h14.772a3.956,3.956,0,0,1,2.342.5,2.086,2.086,0,0,1,.631,1.72Z" transform="translate(690.795 -672.571)" fill="#fff"/>
      <path id="Path_94" data-name="Path 94" d="M198.883,215.284h11.142V211.3H198.883v-5.053h19.132V202.16H193.19V225.3H218.3v-4.324h-19.42Z" transform="translate(686.54 -673.132)" fill="#fff"/>
      <path id="Path_95" data-name="Path 95" d="M239.936,202.16,226.2,225.3h5.639l2.909-5.08H250.06l2.909,5.08H259.3l-13.943-23.14ZM237.162,216l5.206-9.647,5.4,9.647Z" transform="translate(683.263 -673.132)" fill="#fff"/>
      <path id="Path_96" data-name="Path 96" d="M296.725,202.16h-8.179l-13.493,9.35v-9.35H269.37V225.3h5.684V214.851L289.591,225.3h8.926l-17.8-12.421Z" transform="translate(678.978 -673.132)" fill="#fff"/>
      <path id="Path_97" data-name="Path 97" d="M333.235,219.657h-16.4l16.591-10.07a9.2,9.2,0,0,0,3.035-2.594,6.478,6.478,0,0,0,.631-3.153V202.02q0-3.175-1.324-4.351t-5.143-1.18H316.112q-3.824,0-5.134,1.18t-1.306,4.351v3.657l5.585,1.441v-5.828h16.087v3.684L311.816,217a11.011,11.011,0,0,0-2.792,2.27,4.631,4.631,0,0,0-.784,2.882v2.567h23.752q3.824,0,5.143-1.18t1.324-4.351v-2.243l-5.206-1.468v4.179Z" transform="translate(675.119 -672.57)" fill="#fff"/>
      <path id="Path_98" data-name="Path 98" d="M380.428,196.5H356.27v28.238h6.467V213.731h17.69c2.243,0,3.873-.432,4.873-1.3a5.191,5.191,0,0,0,1.513-4.152v-6.305A5.216,5.216,0,0,0,385.3,197.8Q383.8,196.5,380.428,196.5Zm.054,10.124a2.083,2.083,0,0,1-.631,1.747,3.956,3.956,0,0,1-2.342.5H362.737v-7.485h14.772a3.956,3.956,0,0,1,2.342.5,2.086,2.086,0,0,1,.631,1.72Z" transform="translate(670.351 -672.571)" fill="#fff"/>
      <path id="Path_99" data-name="Path 99" d="M404.833,215.284h11.142V211.3H404.833v-5.053h19.132V202.16H399.14V225.3h25.121v-4.324H404.833Z" transform="translate(666.096 -673.132)" fill="#fff"/>
      <path id="Path_100" data-name="Path 100" d="M445.886,202.16,432.15,225.3h5.639l2.909-5.08H456.01l2.909,5.08h6.332l-13.943-23.14ZM443.112,216l5.206-9.647,5.4,9.647Z" transform="translate(662.819 -673.132)" fill="#fff"/>
      <path id="Path_101" data-name="Path 101" d="M486.669,212.879l16.006-10.719H494.5l-13.484,9.35v-9.35H475.32V225.3h5.693V214.851L495.541,225.3h8.926Z" transform="translate(658.533 -673.132)" fill="#fff"/>
    </g>
  </g>
</svg>
