<svg id="Component_23_1" data-name="Component 23 – 1" xmlns="http://www.w3.org/2000/svg" xmlns:xlink="http://www.w3.org/1999/xlink" width="25" height="25" viewBox="0 0 25 25">
  <defs>
    <clipPath id="clip-path">
      <rect id="Rectangle_25" data-name="Rectangle 25" width="25" height="25" fill="none"/>
    </clipPath>
  </defs>
  <g id="Group_62" data-name="Group 62" clip-path="url(#clip-path)">
    <path id="Path_46" data-name="Path 46" d="M53.622,23.993a14.8,14.8,0,0,1-2.2-1.094.964.964,0,0,0-.147-.229c-.5-.6.209-.767.432-.8a13.055,13.055,0,0,0,18.6-4.831,12.555,12.555,0,0,0-2.493-14.8c-.148-.121-.079.034-.056.1.133.388.407.751-.056,1.048-.267.17-.5.044-.694-.176A23.366,23.366,0,0,1,65.975.674c-.063-.362.01-.582.4-.675l2.881.042a.517.517,0,0,1,.218.916c-.227.207-1.065.09-1.38.058-.064.063.04.147.084.192,2.691,2.762,4.2,5.19,4.524,9.078.838,10.066-9.606,17.5-19.077,13.709" transform="translate(-47.746 0.001)"/>
    <path id="Path_47" data-name="Path 47" d="M16.87,7.5a10.813,10.813,0,0,1-.809,19.053c-7.8,3.822-16.906-2.367-16-10.872C.912,7.722,9.943,3.389,16.87,7.5m-.543.882c-6.684-3.955-15.3.751-15.276,8.462.023,8.035,9.414,12.664,16,7.916a9.774,9.774,0,0,0-.722-16.379" transform="translate(0 -5.539)"/>
    <path id="Path_48" data-name="Path 48" d="M98.234,80.665a1.612,1.612,0,0,1-1,3.062c-.591-.156-.843-.589-1.151-1.055-.973-.1-2.12.1-3.07-.017-.631-.075-.657-.955.263-1.031s1.946.067,2.875.013a1.746,1.746,0,0,1,1.019-.974l.022-4.586a.529.529,0,0,1,1.046-.056Zm-.56.927a.592.592,0,1,0,.042,1.184.592.592,0,1,0-.042-1.184" transform="translate(-86.478 -70.726)"/>
    <path id="Path_49" data-name="Path 49" d="M83.166,268.633a.6.6,0,0,1,.27.581,4.59,4.59,0,0,1-.8,1.162.526.526,0,0,1-.744-.7c.2-.367.766-1.279,1.271-1.039" transform="translate(-76.448 -251.3)"/>
    <path id="Path_50" data-name="Path 50" d="M233.071,52.518a.526.526,0,0,1,.361.563,4.635,4.635,0,0,1-.8,1.163.519.519,0,0,1-.744-.7c.193-.357.711-1.211,1.18-1.022" transform="translate(-216.591 -49.111)"/>
    <path id="Path_51" data-name="Path 51" d="M47.173,88.057a2.855,2.855,0,0,1,.983.773.5.5,0,0,1-.615.708,6.55,6.55,0,0,1-1.171-.852c-.262-.44.267-.877.8-.629" transform="translate(-43.26 -82.32)"/>
    <path id="Path_52" data-name="Path 52" d="M263.3,238.027c.5.235,1.641,1.1.647,1.466-.262.1-1.329-.62-1.471-.836-.292-.445.252-.9.823-.63" transform="translate(-245.165 -222.625)"/>
    <path id="Path_53" data-name="Path 53" d="M137.084,29.835a.651.651,0,0,1,.326.246,11.956,11.956,0,0,1,.24,1.3.525.525,0,0,1-.99.176,9.07,9.07,0,0,1-.235-1.25.511.511,0,0,1,.659-.467" transform="translate(-127.468 -27.885)"/>
    <path id="Path_54" data-name="Path 54" d="M284.462,142.226a.51.51,0,0,1,.172.926,6.635,6.635,0,0,1-1.317.27.507.507,0,0,1-.269-.945,9.726,9.726,0,0,1,1.413-.251" transform="translate(-264.236 -133.068)"/>
    <path id="Path_55" data-name="Path 55" d="M25.689,189.5a.519.519,0,0,1,.03.944,11.545,11.545,0,0,1-1.278.217.507.507,0,0,1-.268-.933,5.43,5.43,0,0,1,1.515-.228" transform="translate(-22.366 -177.288)"/>
    <path id="Path_56" data-name="Path 56" d="M183.9,288.589a.466.466,0,0,1,.284.3,9.132,9.132,0,0,1,.224,1.253.517.517,0,0,1-.988.129,10.913,10.913,0,0,1-.241-1.25.549.549,0,0,1,.721-.433" transform="translate(-171.153 -269.973)"/>
  </g>
</svg>
