<svg xmlns="http://www.w3.org/2000/svg" width="521.064" height="384.468" viewBox="0 0 521.064 384.468">
  <g id="Peak2Peak_new" data-name="Peak2Peak new" transform="translate(-34.73 -38.58)">
    <g id="Group_67" data-name="Group 67" transform="translate(34.73 38.58)">
      <g id="Group_64" data-name="Group 64" transform="translate(71.086 177.723)">
        <path id="Path_68" data-name="Path 68" d="M113.65,236.926c.964.865,14.2,2.315,19.843,3.017q14.592,1.77,29.2,3.495c8.548,1.018,17.15,1.991,25.7,3.008,5.116.64,10.268,1.342,15.43,1.937,4.36.477,8.764.91,13.124,1.441q11.363,1.378,22.734,2.855c4.891.64,9.737,1.3,14.574,1.937a8.3,8.3,0,0,1,1.72.324c.477.1,1.135-.162,1.45.432-.054.531-.486.64-.811.8-1.612.757-3.279,1.45-4.837,2.207q-20.091,9.755-40.164,19.573c-2.531,1.234-5,2.585-7.53,3.927-1.018.531-1.018.856-.423,1.874s.856,1.189,1.819.7c1.991-.91,3.873-1.874,5.81-2.846q24.266-11.849,48.549-23.761a8.819,8.819,0,0,1,2.153-.964c1.18-.27,2.423-.8,3.648-.054.108,1.189-.856,1.883-1.288,2.855l-.324.486c-4.36,6.719-8.665,13.493-13.07,20.212C243.752,291.4,236.6,302.373,229.4,313.353a1.3,1.3,0,0,0-.324,1.072,1.828,1.828,0,0,0,1.234-.432c6.134-4.459,12.151-8.98,18.285-13.394,11.394-8.17,22.843-16.231,34.255-24.356.477-.324.856-.811,1.72-.585a12.335,12.335,0,0,1-1.243,6.179c-6.017,13.817-12.043,27.689-18.006,41.506-1.928,4.459-3.819,8.98-5.756,13.493a8.569,8.569,0,0,0-.585,1.675.939.939,0,0,0,.378.7,5.707,5.707,0,0,0,1.072.378c1.189.369,1.234.369,1.72-.811,1.72-3.927,3.387-7.9,5.062-11.881q5.472-12.835,10.962-25.653l6.458-14.835c.153-.306.261-.766.658-.793l17.1,128.868,20.429-131.57c.324.8,2.18,4.2,2.558,5.053q10.255,24.036,20.537,48.072c.486,1.072.919,2.153,1.45,3.216a1.034,1.034,0,0,0,1.243.54c1.774-.378,2.045-.91,1.342-2.63a14.694,14.694,0,0,0-.594-1.351q-2.891-6.445-5.693-12.907-6.945-16.051-13.826-32.1c-1.45-3.441-2.9-6.828-4.351-10.268a10.729,10.729,0,0,1-.919-4.846c.054-.649.54-.856,1.018-.531s.919.7,1.4,1.018c6.773,4.837,13.61,9.575,20.384,14.466,6.882,4.936,13.826,9.728,20.492,14.835,4.342,3.378,8.8,6.548,13.2,9.773.306-.649-.207-1.018-.522-1.5q-9.525-14.43-19.087-28.923c-5-7.638-9.9-15.321-14.844-22.96-.964-1.567-1.928-3.117-3.008-4.837a5.772,5.772,0,0,1,5,.054c1.558.8,3.117,1.666,4.675,2.477Q377.4,271.5,401.452,283.44c.973.486,1.937.964,2.909,1.45a.882.882,0,0,0,1.234-.378c1.072-1.72,1.189-1.928-.7-2.855-.7-.378-1.4-.757-2.1-1.072-4.459-2.144-8.98-4.351-13.439-6.557-11.673-5.7-23.392-11.448-35.056-17.2a6.253,6.253,0,0,1-1.072-.531.555.555,0,0,1-.324-.432c-.054-.378.279-.432.54-.477,6.071-.919,12.2-1.774,18.276-2.693,6.134-.856,12.214-1.774,18.339-2.63,6.665-.919,13.394-1.828,20.059-2.792,8.224-1.189,16.5-2.36,24.734-3.549,9.521-1.342,19.032-2.639,28.544-3.981,6.458-.856,12.962-1.774,19.465-2.684,2.738-.369,5.521-.775,8.269-1.162Zm171.9,21.293a20.859,20.859,0,0,1-3.117,3.495c-9.413,8.926-18.762,17.8-28.121,26.725-.279.27-.54.585-.811.856-.009,0-.018.009-.027.009l.027.045c-.027-.009-.045-.027-.072-.027-.216.1-.4.225-.622.324a.224.224,0,0,0-.009.081c-.036.018-.081.027-.108.045-.1.171-.18.333-.261.5a.823.823,0,0,0-.009.153q-.23.122-.459.27c.135-.09.27-.171.4-.27.027-.054.045-.108.063-.153a.564.564,0,0,1,.261-.5c.018-.027.027-.063.054-.1.027-.009.036-.018.063-.027.027-.468.288-.459.622-.324.018-.009.027-.018.045-.027-.342-.622.027-1.081.4-1.5,1.612-1.828,3.225-3.711,4.837-5.539,6.125-7.152,12.259-14.259,18.384-21.4A9.938,9.938,0,0,0,278,259.66a5.839,5.839,0,0,1,4.567-2.855c.585-.045,1.126-.216,1.72-.27.64-.054,1.342-.757,1.819.108C286.464,257.255,285.87,257.742,285.546,258.219Zm25.049,1.612c-.585,6.35-1.126,12.682-1.666,19.032-.432,5.17-.91,10.331-1.342,15.484-.856,10.322-1.666,20.7-2.531,31.021-.054.7-.153,1.342-.216,2.045-.757-1.666-.7-3.441-.865-5.215-.378-5-.8-9.944-1.18-14.943-.27-2.909-.486-5.855-.7-8.764-.594-7.692-1.189-15.43-1.774-23.122-.486-6.125-.865-12.3-1.342-18.438a9.7,9.7,0,0,1,.585-4.305c.865-2.36,1.666-4.783,2.477-7.206a1.665,1.665,0,0,1,2.045-1.234c1.189.1,2.639-.649,3.441.856a14.328,14.328,0,0,1,.757,1.937c.486,1.4.811,2.846,1.4,4.2C310.973,254.022,310.874,256.877,310.595,259.831Zm47.216,30.436h0c.027.009.036,0,.054,0a.039.039,0,0,0,.009.027c.234.117.459.243.685.36a.527.527,0,0,0,.117-.018v.063c.018.009.036.027.054.036-.027-.009-.036-.027-.063-.027-.009.153-.054.171-.1-.027a.2.2,0,0,1,.072.009.32.32,0,0,0-.081-.036c-.279.036-.576.027-.685-.36a.1.1,0,0,1-.063-.027c-.4.09-.531-.126-.531-.54C357.667,289.7,357.811,289.907,357.811,290.267Zm-.594-.54c-.4.027-.531-.171-.531-.585C357.127,289.1,357.271,289.312,357.217,289.727Zm-9.575-11.664c2.747,3.171,5.485,6.341,8.233,9.566.324.432.856.811.757,1.5-.712-.036-1.09-.7-1.567-1.135Q343.3,276.8,331.519,265.47c-1.351-1.3-2.747-2.531-4.089-3.819a22.551,22.551,0,0,1-3.333-3.711,1.76,1.76,0,0,1-.432-1.5,20.609,20.609,0,0,1,5.918.811c.865.162,1.243.964,1.72,1.567C336.734,265.209,342.22,271.667,347.642,278.062Z" transform="translate(-113.65 -235.89)" fill="#fff"/>
        <path id="Path_69" data-name="Path 69" d="M410.564,324.018c-.009-.009-.018-.009-.027-.018-.009.027-.018.045-.027.072Z" transform="translate(-143.119 -244.636)" fill="#fff"/>
        <path id="Path_70" data-name="Path 70" d="M433.784,341.548c-3.6-5.224-7.269-10.439-10.917-15.655-.811-1.126-.757-1.18.108-2.252,1.819-2.315,3.711-4.567,5.485-6.882a131.693,131.693,0,0,0,17.853-31.616,125.1,125.1,0,0,0,8.224-35.327c.108-.91-.27-1.234-1.234-1.072-3.6.54-7.152,1.072-10.755,1.621-1.675.27-1.675.324-1.828,1.765a107.745,107.745,0,0,1-7.53,29.472c-6.99,16.835-16.835,31.616-30.7,43.55a111.02,111.02,0,0,1-26.833,17.267,114.291,114.291,0,0,1-26.725,8.764c-2.684.486-5.431.91-8.116,1.342a1.725,1.725,0,0,0-1.675,1.666c-.423,3.45-.856,6.837-1.288,10.214-.153,1.45.162,1.72,1.621,1.621a13.064,13.064,0,0,0,1.441-.162,142.575,142.575,0,0,0,28.121-6.08,116.069,116.069,0,0,0,35.381-18.816c1.991-1.558,3.918-3.225,5.855-4.891a1.069,1.069,0,0,1,1.558-.054c.919.757,1.828,1.567,2.747,2.261,11.133,8.386,22.2,16.718,33.336,25.112a7.24,7.24,0,0,0,.847.405,1.271,1.271,0,0,0-.153-.676Q441.206,352.28,433.784,341.548Z" transform="translate(-135.903 -237.162)" fill="#fff"/>
        <path id="Path_71" data-name="Path 71" d="M295.7,351.857a96.856,96.856,0,0,1-9.881-1.982,119.13,119.13,0,0,1-52.423-28.283,116.97,116.97,0,0,1-34.471-65.006c-.27-1.72-.531-3.495-.8-5.215a1.353,1.353,0,0,0-1.3-1.3c-3.711-.423-7.368-.91-11.07-1.4-.91-.1-1.243.279-1.135,1.189.324,3.008.649,6.026,1.135,9.034a119.786,119.786,0,0,0,10.376,33.228,136.589,136.589,0,0,0,17.744,27.959c1.018,1.189,1.991,2.423,2.963,3.648.64.865.7,1.072,0,2.054-.757,1.018-1.5,2.045-2.261,3.063-7.314,10.43-14.565,20.915-21.825,31.345a14.5,14.5,0,0,1-2.738,3.441c.757.378,1.234-.153,1.828-.7,4.675-3.549,9.35-7.089,14.078-10.584,6.774-5.062,13.547-10.061,20.266-15.114,3.117-2.315,2.207-2.261,5,.054,11.773,9.674,24.626,17.312,39.146,22.149a126.522,126.522,0,0,0,25.851,6.062,1.706,1.706,0,0,0,1.892-1.837l-.9-10.277A1.7,1.7,0,0,0,295.7,351.857Z" transform="translate(-120.693 -237.158)" fill="#fff"/>
        <path id="Path_72" data-name="Path 72" d="M265.17,372.838a.88.88,0,0,0-1.234.378c-1.18,2.9-2.261,5.81-3.387,8.71-.216.649-.108,1.126.594,1.4.91.378,1.288.324,1.666-.432,1.288-2.738,2.477-5.539,3.711-8.278.054-.162.054-.378.108-.594C266.566,373.154,265.818,373.045,265.17,372.838Z" transform="translate(-128.223 -249.474)" fill="#fff"/>
        <path id="Path_73" data-name="Path 73" d="M193.5,302.57a2.3,2.3,0,0,0-.432-1.5c-.54-.964-.865-1.072-1.883-.54-2.423,1.234-4.837,2.531-7.26,3.765-.324.162-.757.324-.811.757a2.017,2.017,0,0,0,.594,1.612c.378.486.865.27,1.288.054,2.639-1.18,5.323-2.423,7.953-3.657C193.188,302.939,193.35,302.669,193.5,302.57Z" transform="translate(-120.544 -242.275)" fill="#fff"/>
        <path id="Path_74" data-name="Path 74" d="M387.915,373.866c-.486-1.18-1.018-1.288-2.315-.648-.486.216-.811.54-.54,1.126,1.234,2.846,2.531,5.7,3.819,8.548a1.182,1.182,0,0,0,.162.27,1,1,0,0,0,1.072.27c.432-.162.964-.216,1.126-.91a4.793,4.793,0,0,0-.162-.757C390.067,379.135,389,376.5,387.915,373.866Z" transform="translate(-140.583 -249.484)" fill="#fff"/>
        <path id="Path_75" data-name="Path 75" d="M459.092,301.023a.6.6,0,0,0-.757.216,6.336,6.336,0,0,0-.811,1.234.768.768,0,0,0,.378,1.18c2.738,1.342,5.431,2.639,8.17,3.981a.913.913,0,0,0,.27.108c.27-.054.648-.108.757-.27a8.079,8.079,0,0,0,.649-1.342,1.708,1.708,0,0,0-.378-.7A84.641,84.641,0,0,0,459.092,301.023Z" transform="translate(-147.772 -242.349)" fill="#fff"/>
        <path id="Path_76" data-name="Path 76" d="M241.494,323.98a7.692,7.692,0,0,1,.27-.91C241.179,323.223,241.341,323.6,241.494,323.98Z" transform="translate(-126.327 -244.544)" fill="#fff"/>
        <path id="Path_77" data-name="Path 77" d="M410.69,323.888a.924.924,0,0,1,.216-.045c-.036-.018-.072-.045-.108-.063C410.8,323.834,410.69,323.888,410.69,323.888Z" transform="translate(-143.137 -244.615)" fill="#fff"/>
        <path id="Path_78" data-name="Path 78" d="M411.19,323.78c-.09.027-.18.045-.27.063a2.859,2.859,0,0,0,.27.153Z" transform="translate(-143.159 -244.615)" fill="#fff"/>
        <path id="Path_79" data-name="Path 79" d="M190.6,376.36a.336.336,0,0,0,.054.225c.036.036.027.054.036.081.009-.009,0-.018.009-.027C190.744,376.594,190.663,376.468,190.6,376.36Z" transform="translate(-121.289 -249.834)" fill="#fff"/>
        <path id="Path_80" data-name="Path 80" d="M190.54,376.25a.989.989,0,0,1,.054.1V376.3Z" transform="translate(-121.283 -249.823)" fill="#fff"/>
        <path id="Path_81" data-name="Path 81" d="M190.693,376.7c-.18.234.09.189,0,0Z" transform="translate(-121.292 -249.868)" fill="#fff"/>
        <path id="Path_82" data-name="Path 82" d="M461.22,376.63c.09.243.2.459.288.667C461.661,376.954,461.607,376.711,461.22,376.63Z" transform="translate(-148.153 -249.861)" fill="#fff"/>
        <path id="Path_83" data-name="Path 83" d="M461.171,376.541c-.054-.027-.108-.054-.171-.081a.7.7,0,0,0,.018.135.239.239,0,0,0,.153-.054l-.054.054c.036,0,.054.018.09.027a.567.567,0,0,1-.036-.081Z" transform="translate(-148.131 -249.844)" fill="#fff"/>
        <path id="Path_84" data-name="Path 84" d="M461.55,377.38h0l.054.108.1-.108Z" transform="translate(-148.185 -249.935)" fill="#fff"/>
        <path id="Path_85" data-name="Path 85" d="M325.265,450.954c-.414-.081-1-.189-1.765-.324-2.27-.387-3.108-.757-3.4-1a2.165,2.165,0,0,1-.622-.739,1.914,1.914,0,0,1-.2-.874,2.383,2.383,0,0,1,1.018-1.982,4.434,4.434,0,0,1,2.774-.811,4.573,4.573,0,0,1,3.2,1.126,6.711,6.711,0,0,1,1.81,3.477l.063.261h.892l1.423-4.918-.261-.117a15.956,15.956,0,0,0-3.468-1.126,18.644,18.644,0,0,0-3.756-.378,10.733,10.733,0,0,0-6.224,1.648,5.222,5.222,0,0,0-2.414,4.45,5.1,5.1,0,0,0,.432,2.081,4.894,4.894,0,0,0,1.252,1.711,6.1,6.1,0,0,0,1.838,1.072,25.351,25.351,0,0,0,3.729.946,11.052,11.052,0,0,1,3.855,1.207,1.853,1.853,0,0,1,.739,1.594,2.924,2.924,0,0,1-1.1,2.432,4.93,4.93,0,0,1-3.162.91,5.67,5.67,0,0,1-4.017-1.45,7.388,7.388,0,0,1-2.072-4.251l-.045-.279h-.874l-1.666,5.666.252.126a16.428,16.428,0,0,0,3.981,1.369,22.624,22.624,0,0,0,4.639.468,10.794,10.794,0,0,0,6.539-1.856,5.844,5.844,0,0,0,2.567-4.873,4.778,4.778,0,0,0-1.486-3.639A9.318,9.318,0,0,0,325.265,450.954Z" transform="translate(-133.463 -256.504)" fill="#fff"/>
      </g>
      <g id="Group_65" data-name="Group 65">
        <path id="Path_86" data-name="Path 86" d="M166.009,149.826a.226.226,0,0,0-.063.036,1.475,1.475,0,0,0-.225.036,3.411,3.411,0,0,0-.585.189c-.2.081-.378.2-.567.3-.018,0-.045-.009-.063,0a1.332,1.332,0,0,0-.513.171c-.18.1-.36.216-.54.324-.324.189-.658.378-.982.576a6.665,6.665,0,0,0-2.027,1.865,3.129,3.129,0,0,0-.162.3,6.123,6.123,0,0,0-.82,1.1c-.567,1-.973,2.063-1.63,3a.683.683,0,0,0,.225.9.541.541,0,0,0,.18.063.785.785,0,0,0,1.108.531,8.4,8.4,0,0,0,1.846-1.594,3.517,3.517,0,0,1,.973-.775,8.074,8.074,0,0,1,1.234-.576c.216-.072.405-.081.613-.135a2.576,2.576,0,0,0,.676-.36,6.073,6.073,0,0,0,.973-.829,3.564,3.564,0,0,0,.676-1.027,4.935,4.935,0,0,0,.3-.793,2.244,2.244,0,0,0,.036-.594c.243-.721.784-1.8.333-2.459A.688.688,0,0,0,166.009,149.826Zm-1.153.558h0C164.937,150.393,164.919,150.393,164.856,150.384Z" transform="translate(-46.941 -49.611)" fill="#fff"/>
        <path id="Path_87" data-name="Path 87" d="M147.6,169.93a23.621,23.621,0,0,1-4.026,2.567c-.531.288-1.09.558-1.648.838-.153.036-.306.081-.45.117a11.245,11.245,0,0,0-1.621.594,3.87,3.87,0,0,0-1.207.928c-.018.018-.036.018-.054.036a4.7,4.7,0,0,0-.667.838c-.225.324-.45.658-.667.982a3.734,3.734,0,0,0-.531,1.117c-.2.631-.549,1.324-.8,1.964-.054.135-.135.252-.2.387-.045.09-.1.171-.135.261a6.166,6.166,0,0,1-.964,1.405c-.234.252.09.73.369.5a5.465,5.465,0,0,0,.612-.594.648.648,0,0,0,.594.189,4.555,4.555,0,0,0,1.594-.91,11.013,11.013,0,0,1,1.54-.829,11.838,11.838,0,0,0,3.4-1.919,13.858,13.858,0,0,0,1.387-1.594,5.657,5.657,0,0,0,.766-1.072c.189-.378.315-.784.486-1.171a10.754,10.754,0,0,1,1.468-2.216c.468-.631.919-1.27,1.378-1.91C148.529,170.02,147.926,169.659,147.6,169.93Zm-7.035,5.774v-.045a8.72,8.72,0,0,1,.766-.64C141.071,175.235,140.828,175.478,140.567,175.7Zm5.206-3.36c-.009-.009-.009-.018-.018-.018.027-.018.063-.036.1-.063A.691.691,0,0,0,145.773,172.344Z" transform="translate(-44.639 -51.61)" fill="#fff"/>
        <path id="Path_88" data-name="Path 88" d="M533.357,174.2a6.686,6.686,0,0,0-6.629,5.648l-.144.883-.576-3.189a4.085,4.085,0,0,0-4.017-3.351h-5.576l-5.765-24.824a1.727,1.727,0,0,0-3.4.252l-3.783,46.856-2.171-16.357a7.384,7.384,0,0,0-7.3-6.4H476.512a10.254,10.254,0,0,1-2-.54,8.4,8.4,0,0,1-1-.477,46.884,46.884,0,0,1-4.945-3.675c-1.747-1.315-3.621-2.468-5.359-3.783-3.072-2.306-6.891-4.008-9.881-6.44-3.729-3.053-4.549-7.251-7.188-10.773a11.118,11.118,0,0,0-4.089-3.459c-.1-.036-.2-.081-.315-.117.009-.009.018-.009.036-.018-.279-.108-.567-.207-.82-.333a.124.124,0,0,1-.036.027c-1-.4-2.054-.73-3.053-1.135a20.923,20.923,0,0,1-3.81-2.171A28.282,28.282,0,0,0,427.5,137.9c-2.5-.883-3.351-2.378-4.486-4.1a19.691,19.691,0,0,0-4.486-4.6,29.26,29.26,0,0,1-5.35-5.774c-2.837-3.828-5.269-6.891-10.953-8.755A35.3,35.3,0,0,0,395,113.1a48.163,48.163,0,0,1-7.764-1.144c-4.873-1.414-7.422-5.188-12.232-6.611a11.513,11.513,0,0,0-1.423-.315,21.357,21.357,0,0,1-2.846-1.486l-6.81-4.143a8.954,8.954,0,0,1-2.684-2.378,11.469,11.469,0,0,0-3.378-2.981c-3.369-2.054-3.729-2.162-7.332-2.909l-.5-.1c-3.369-.712-4.495.126-6.053,1.54a15.92,15.92,0,0,1-2.828,2.126,22.629,22.629,0,0,0-3.792,3.053,20.752,20.752,0,0,1-3.252,2.666,24.846,24.846,0,0,1-5.431,2.27c-.748-1.657-1.207-3.423-1.919-5.134a6.913,6.913,0,0,0-.522-1.117,11.967,11.967,0,0,0-4.873-5.386,17.164,17.164,0,0,0-3.333-1.27,20.983,20.983,0,0,1-2.207-1.648,18.332,18.332,0,0,0-4.693-3.351c-.82-.378-1.63-.739-2.414-1.126-.243-.288-.5-.567-.757-.856a13.17,13.17,0,0,0-2.072-1.7,18.319,18.319,0,0,0-4.035-3.117c-.225-.18-.423-.351-.649-.513a31.385,31.385,0,0,0-6.062-2.945.593.593,0,0,0-.694.3,5.361,5.361,0,0,1-.387.576,1.6,1.6,0,0,0-.477.613,18.837,18.837,0,0,0-1.4,1.675,20.058,20.058,0,0,0-1.567,3.324,28.087,28.087,0,0,1-3.63,6.4,92.7,92.7,0,0,1-6.548,7.116,9.7,9.7,0,0,0-2.252,2.4c-.441.477-.892.955-1.324,1.45a90.97,90.97,0,0,0-5.549,7.3.487.487,0,0,0-.2.09c-.081.063-.153.135-.234.207-.117.108-.234.216-.36.324-.234.216-.477.423-.712.64a1.011,1.011,0,0,0-1.108-.072c-.387.225-.8.414-1.216.6-.054.009-.108.027-.162.036a.371.371,0,0,1-.189-.027c-.054-.018-.216-.054-.477-.108a.38.38,0,0,1-.315-.459,1.01,1.01,0,0,1,.036-.189q.919-3.229,1.585-5.747c.018-.081.09-.135.117-.207a3.086,3.086,0,0,0,.135-.486V100.2a1.031,1.031,0,0,1,.009-.171c.054-.207.171-.667.369-1.387.18-.658.306-1.117.369-1.387a.139.139,0,0,1,.027-.063c.036-.036.081-.063.1-.117a3,3,0,0,0,.126-.441v-.036a.279.279,0,0,1-.009-.171c.513-1.892,1.009-3.684,1.486-5.35a.115.115,0,0,1,.063-.081,3.793,3.793,0,0,0,.712-.5c.081-.072.054-.153.036-.243-.036-.153.135-.225.045-.405a.252.252,0,0,1-.027-.153.069.069,0,0,1,.018-.036.2.2,0,0,0,.009-.27.782.782,0,0,1-.063-.09.068.068,0,0,1-.009-.045.243.243,0,0,1,.045-.1c.009-.009.009-.018.009-.036a.124.124,0,0,0-.054-.1.631.631,0,0,0-.585-.18.07.07,0,0,1-.072-.018.374.374,0,0,0-.315-.1.068.068,0,0,0-.036.018,1.317,1.317,0,0,1-.333.3.224.224,0,0,0-.1.126c-.117.414-.189.658-.216.721a.539.539,0,0,1-.216.261c-.324.252-.585.441-.775.567a10.175,10.175,0,0,1-1.855.919c-.018.009-.027.009-.045-.009l-.072-.054a.068.068,0,0,0-.072-.009,2.97,2.97,0,0,1-.685.324.075.075,0,0,1-.072-.018c-.153-.117-.225-.072-.378,0-.018.009-.027,0-.045-.009a.44.44,0,0,0-.162-.126.251.251,0,0,0-.18.009,1.035,1.035,0,0,0-.4-.27,2.559,2.559,0,0,0-.721-.18.029.029,0,0,1-.027-.027c-.045-.18-.171-.468-.378-.486a1.18,1.18,0,0,0-.252,0,.145.145,0,0,1-.081-.027l-.964-.8a.031.031,0,0,1-.009-.045.907.907,0,0,1,.153-.225c.09-.108.207-.081.36-.072,0,0,.126.018.36.045a.262.262,0,0,0,.315-.261c-.009-.153-.1-.288.018-.432a.1.1,0,0,0,.009-.135.058.058,0,0,1,.009-.081.176.176,0,0,0,.054-.108l-.036-.153c-.009-.045,0-.072.045-.081a1.39,1.39,0,0,0,.252-.081.091.091,0,0,0,.045-.1c-.018-.054-1.387-.108-1.414-.153-.09-.162-.18-.324-.261-.477-.018-.045-.009-.072.036-.072a2.785,2.785,0,0,0,.847-.252.709.709,0,0,0,.387-.306c.072-.153-.045-.324-.153-.423a1.526,1.526,0,0,0-.658-.378,3.777,3.777,0,0,0-.5-.117c-.009,0-.027-.009-.027-.018a1.344,1.344,0,0,1-.081-.162,5.4,5.4,0,0,0-.252-.612.42.42,0,0,0-.333-.243,5.247,5.247,0,0,0-1.3.045,3.208,3.208,0,0,0-.9.3.648.648,0,0,0-.36.576c-.009.153-.018.306-.018.477a.071.071,0,0,1-.045.072,2.549,2.549,0,0,0-.883.612.4.4,0,0,0-.063.486.915.915,0,0,0,.612.234c.108.009.207.018.288.027q.014,0,.027.027c.045.216,1.468.414,1.549.631a1.7,1.7,0,0,0-.54.135l-.027.027a.307.307,0,0,0-.009.09.721.721,0,0,1-.162.676.047.047,0,0,1-.036-.018.112.112,0,0,0-.153-.1c-.054.009-.081.045-.153.045-.027-.324-.045-.558-.072-.7-.054-.306-1.513-.622-1.675-.937a2.547,2.547,0,0,0-.631-.829,2.151,2.151,0,0,0-1.594-.531,8.31,8.31,0,0,0-1.1.162,2.507,2.507,0,0,0-1.36.856,1.07,1.07,0,0,0-.081.135c-.063.171-.063.225-.171.324-.027.027-.072.072-.126.117s1.27.144,1.243.3c-.018.09-.027.171-.036.234a.835.835,0,0,1-.081.216,1.33,1.33,0,0,0-.09.549.781.781,0,0,0,.144.36.115.115,0,0,1,0,.108l-.054.081a.067.067,0,0,0-.009.045.492.492,0,0,1,.009.162.05.05,0,0,1-.027.045c-.009,0-.027-.009-.027-.018a.448.448,0,0,1-.009-.189c0-.018,0-.018-.018-.018h-.054a.05.05,0,0,0-.045.027.235.235,0,0,0-.027.1c0,.018-.009.027-.027.018a.933.933,0,0,0-.09-.036c-.027-.009-.054.009-.063.045s-.027.09-.036.135c-.036.081,0,.162-.009.225a.338.338,0,0,1-.135.252,1.2,1.2,0,0,0-.189.18c-.054.09-.108.189-.162.279s-.153.252-.288.459c-.252.378-.531.793-.829,1.261a1.308,1.308,0,0,0,.153.171c.18-.252.36-.5.531-.775.09-.135.2-.3.324-.477a5.339,5.339,0,0,0,.432-.685c.018-.036.027-.036.036.009a.461.461,0,0,1-.117.405,6.138,6.138,0,0,0-.387.477.712.712,0,0,0-.09.378.411.411,0,0,1-.072.189,1.106,1.106,0,0,0-.216.45,1.694,1.694,0,0,0,.018.342c.018.189.09.306.018.5a1.286,1.286,0,0,0-.1.351c-.018.207-.036.432-.036.685a.19.19,0,0,1-.054.144A8.521,8.521,0,0,0,251.14,96.2c-.225.324-.387.585-.513.8,0,0,.2.207.207.207.2-.342.369-.622.5-.847a5.567,5.567,0,0,1,.576-.793,4.8,4.8,0,0,0-.306.549.565.565,0,0,0,.063.54.054.054,0,0,1,.009.036c-.018.144-.072.252,0,.4a.057.057,0,0,1,0,.054c-.171.387-.351.784-.522,1.189a2.34,2.34,0,0,0,.153-.216c.081-.126.189,0,.27.054a4.842,4.842,0,0,1,.279-.865c.009-.018.018-.018.027-.009l.225.171c.009.009.018.018.009.036a2.228,2.228,0,0,0-.027.243c-.009.243-.009.631,0,1.171a16.423,16.423,0,0,1-.09,1.892c0,.018.009.018.018.018a1.216,1.216,0,0,1,.36.009c.009,0,.018,0,.018-.018,0,0,.054-1.919.054-1.928a.033.033,0,0,1,.027-.009.629.629,0,0,1,.261.432c.063.225.36,1.1.64,1.081a.5.5,0,0,0,.207-.063c.009-.009.135-.081.36-.216a.135.135,0,0,1,.117-.009,2.592,2.592,0,0,0,.576.216.024.024,0,0,1,.027.027c.036.135.054.288.2.324a.029.029,0,0,1,.027.027c.018.081.081.27.18.576.045.144.144.459.288.955.063.225.126.522.171.685a1.472,1.472,0,0,1,.018.324,1.061,1.061,0,0,0,.072-.631,7.222,7.222,0,0,0-.522-1.928c-.045-.1-.009-.189.018-.342,0-.009.009-.018.027-.018.18-.018.378-.045.576-.081.018,0,.018,0,.018.018a6.228,6.228,0,0,0,.171,1.468,1.81,1.81,0,0,0,.27.594.04.04,0,0,1,0,.045l-.243.261a.017.017,0,0,0,.009.027,1.264,1.264,0,0,1,.306.261.234.234,0,0,1-.018.261c-.054.09-.108.171-.162.252a.391.391,0,0,0-.072.3,1.948,1.948,0,0,1,.018.513c-.108.811-.234,1.621-.369,2.432a.97.97,0,0,1-.3.5.212.212,0,0,0-.054.225,1.547,1.547,0,0,1,.063.288.524.524,0,0,1-.09.4c-.018.018-.045.009-.063-.009l-.09-.117c-.036-.045-.054-.036-.054.018l-.009.468c0,.018-.009.036-.027.036-.081.009-.144.009-.189.018-.288.009-.3.342-.3.594a.178.178,0,0,1-.054.126,3.883,3.883,0,0,0-.712,1.243c-.063.18-.126.4-.2.667a1.8,1.8,0,0,1-.144.414c-.018.036-.108.189-.261.441a2.354,2.354,0,0,0-.459-.225c-2.09-.667-4.008-.829-5.981-1.973a13.51,13.51,0,0,0-6.4-1.783,19.752,19.752,0,0,1-7.908-2.945c-1.126-.676-1.558-2.162-3.026-2.189-1.378-.045-1.837.919-2.4,2.081a25.82,25.82,0,0,1-4.233,5.783,41.5,41.5,0,0,0-4.414,5.6c-1.531,2.5-2.1,5.485-3.81,7.845-1.279,1.729-2.819,3.18-3.612,5.269a21.355,21.355,0,0,0-.775,3.4,21.312,21.312,0,0,1-1.91,5.062c-1.126,2.441-1.955,4.972-3.891,6.819a10.578,10.578,0,0,1-1.54,1.243,3.628,3.628,0,0,0-1.477-.549c-1.991-.3-3.756.594-5.539,1.414-1.874.856-3.891,1.36-5.747,2.3-1.756-.658-3.531-1.279-5.233-2.09-2.54-1.207-4.459-3.36-6.936-4.7a8.832,8.832,0,0,0-6.305-.631c-2.3.5-4.432,1.378-6.368-.576-1.738-1.756-2.981-3.747-5.062-5.125-1.63-1.081-3.972-2.63-5.981-2.513-2.135.126-4.08,2.288-5.512,3.774a43.92,43.92,0,0,0-5.332,7.035c-1.594,2.54-2.936,5.323-4.963,7.53a29.714,29.714,0,0,1-6.269,4.864c-2.18,1.4-4.7,2.693-6.35,4.783a16.784,16.784,0,0,0-1.171,1.7,31.291,31.291,0,0,1-2.855,4.305,24.713,24.713,0,0,1-5.81,4.008c-6.332,2.8-14.078,2.081-20.834,2.27a7.412,7.412,0,0,0-7.3,6.251l-.423,3.117-.82,6.17c-.234,1.792-.567,4.269-.919,6.936-1.072-13.367-2.4-29.544-3.189-39.776l-.5-6.2-.027-.387-.018-.2a1.791,1.791,0,0,0-3.54-.2c-1.684,7.2-4,17.222-5.747,24.689H67.355a4.241,4.241,0,0,0-4.414,3.594c-.09.486-.333,1.8-.423,2.3a2.416,2.416,0,0,0-.045.27c-.072-.405-.144-.82-.225-1.207a6.847,6.847,0,0,0-6.557-4.963c-.216-.009-.955.009-1.162,0l-12.439-.009H34.73l.027,3.45H47.241c2.774,0,5.549-.045,8.323-.009h.126c2.135.09,3.333,1.531,3.5,3.792l.5,3.072c.207,1.4.667,4.008.865,5.377a1.824,1.824,0,0,0,3.621.216c.5-2.909,1.5-8.035,1.982-10.9.126-.513.081-1.441.766-1.549,1.729-.045,4.909,0,6.656-.018h.2c.189-.027-.3.054.5-.054a1.9,1.9,0,0,0,1.351-1.423c.144-.667.45-1.874.594-2.558.856-3.693,2.009-8.683,3.126-13.493.658,8.089,1.513,18.546,1.747,21.482l2.018,24.8.252,3.1.027.387s.018.2.018.189a1.862,1.862,0,0,0,3.621.432c.766-5.161,2.036-15.448,2.765-20.708l.811-6.17.405-3.044A4.135,4.135,0,0,1,95.1,177.03c.288,0,.856-.009,1.171-.009,7.044-.153,15.448.631,21.509-3.414.09-.054.171-.126.261-.189.126-.081.243-.18.36-.27a25.2,25.2,0,0,0,7.125-7.575,15.07,15.07,0,0,1,3.27-4.26,48.909,48.909,0,0,1,4.756-3.1,31.946,31.946,0,0,0,5.684-4.3c4.08-4.062,6.233-9.89,10.079-14.223,1.513-1.7,3.756-4.585,6.188-3.684a16.172,16.172,0,0,1,3.171,1.612c.018.036.018.081.054.117,2.675,2.6,1.837,7.125,2.243,10.512.414,3.477,1.432,5.621,4.468,7.035,1.612.739,3.558.594,4.927,1.828,1.72,1.54.721,3.4,1.126,5.377a5.049,5.049,0,0,0,1.883,2.882,17.168,17.168,0,0,0,1.892,1.126c.036.027.081.054.117.081a1.275,1.275,0,0,0,.576.459c.414.369.8.784,1.252,1.126a.612.612,0,0,0,.856-.243,3.67,3.67,0,0,0,.243-2.324,5.118,5.118,0,0,1-.054-1.009c.027-.036.054-.063.1-.117a11.638,11.638,0,0,0,1.09-1.576c.144-.243.261-.513.387-.775.18-.189.351-.369.513-.576a9.218,9.218,0,0,0,1.207-2.351c.225-.676.162-1.036.8-1.378,1.171-.64,2.108,1.252,1.846,2.324-.234.982-1.342,1.693-1.837,2.558a4.945,4.945,0,0,0-.658,3.008c.243,1.964,1.639,2.441,3.162,3.1a9.509,9.509,0,0,1,.955.486c.27.279.558.549.829.838a30.037,30.037,0,0,1,2.4,2.6,7.952,7.952,0,0,0,2.54,2.567,2.54,2.54,0,0,0,1.234.27c1.5,1.054,3.279-.9,4.9-1.63a11.858,11.858,0,0,0,3.026,1.405,2.6,2.6,0,0,0,.676.73,3.766,3.766,0,0,0,2.486.459c.081,0,.162.027.225.027.3.162.585.342.865.531a1.308,1.308,0,0,0,1.405.171c1.675.892,3.243,2.342,4.972,2.918a.707.707,0,0,0,.9-.7,1.057,1.057,0,0,0,.54-1.54c-1.865-2.594-3.873-5.053-5.612-7.728a41.43,41.43,0,0,1-4.206-8.89c-1.819-5.242-5.4-8.548-10.205-10.989,1.1-.423,2.216-.8,3.288-1.288a2.54,2.54,0,0,0,.73-.018,10.623,10.623,0,0,1,1.684-.207c1.18.054,2.342,1.045,3.27,1.765.531.414,1.027.91,1.531,1.351a7.388,7.388,0,0,1,1.531,1.3,22.206,22.206,0,0,1,.973,3.072c.612,1.549,1.928,2.288,3.225,3.008a12.087,12.087,0,0,0,2.774,2.81c.982.838,1.9,2.711,3.3,2.711a.288.288,0,0,0,.225-.432,18.178,18.178,0,0,0-1.171-1.567q-.041-.176-.081-.324a3.083,3.083,0,0,0-.153-.36c.036-.117.072-.243.108-.351a7.048,7.048,0,0,0,.2-.838c.108-.549.252-1.1.4-1.648.09-.369-.441-.631-.622-.27-.252.5-.5,1-.766,1.486-.045.081-.081.162-.126.243-.18-.252-.378-.5-.576-.739.018-.09.027-.171.045-.3a.158.158,0,0,1,.009-.045,5.413,5.413,0,0,1,.234-.829,17.576,17.576,0,0,1,.856-1.874c.36-.658.739-1.3,1.153-1.919a21.39,21.39,0,0,0,1.27-2.081.192.192,0,0,0-.3-.234,20.447,20.447,0,0,0-1.7,1.828c-.54.622-1.126,1.189-1.693,1.774a7.147,7.147,0,0,0-1.4,1.765c-.063.135-.126.27-.18.405a1.259,1.259,0,0,1-.144-.09,1.247,1.247,0,0,0,.189-.342,4.509,4.509,0,0,1,.459-1.261c.279-.45.558-.892.829-1.351.288-.5.576-.991.874-1.486.585-.973,1.027-2,1.54-3.017q.811-1.608,1.513-3.27a.22.22,0,0,0-.378-.225c-.6.883-1.18,1.774-1.765,2.666s-1.27,1.711-1.937,2.549a12.233,12.233,0,0,1-1,1.153c-.045.045-.1.081-.144.126.324-.667.522-1.432.793-2.072.54-1.3,1.135-2.612,1.8-3.846a65.186,65.186,0,0,0,3.441-7.629c.072-.189-.216-.306-.315-.135a44.177,44.177,0,0,1-4.864,7.233,12.941,12.941,0,0,0-1.684,2.63,2.933,2.933,0,0,0-.3-.279c.261-.54.531-1.072.838-1.585.829-1.387,1.846-2.657,2.639-4.062a23.005,23.005,0,0,0,1.63-4.071,16.371,16.371,0,0,0,.838-4.513c.009-.207-.333-.261-.369-.054A19.961,19.961,0,0,1,214,140.091a15,15,0,0,1-2.63,3.738,22.891,22.891,0,0,0-2.855,3.585c-.315.549-.594,1.117-.865,1.684a1.013,1.013,0,0,1-.4-.135.956.956,0,0,1-.081-.1,15.213,15.213,0,0,1,.883-2.045,19.732,19.732,0,0,1,3.053-4.287,14.321,14.321,0,0,0,3.513-9.088.141.141,0,0,0-.261-.072c-.721,1.549-1.081,3.234-1.865,4.765-.856,1.675-2.333,2.774-3.639,4.071a14.266,14.266,0,0,0-2.963,3.972c-.171.36-.333.73-.486,1.1-.4-1.477,4.621-7.584,6.035-11.43.919-2.5.73-5.062,2.261-7.323,1.405-2.063,3.135-3.684,4.26-6a35.117,35.117,0,0,1,3.81-6.918c.567-.712,1.162-1.4,1.765-2.072-.063.216-.135.423-.2.64a42.886,42.886,0,0,1-1.126,4.161c-.549,1.387-1.171,2.756-1.747,4.134-.126.288.261.549.432.252a35.485,35.485,0,0,0,1.9-3.792c.549-1.288,1.333-2.468,1.9-3.756a24.491,24.491,0,0,1,1.684-3.54,3.666,3.666,0,0,1,.288-.4c-.216.847-.414,1.7-.667,2.549-.838,2.828-2.576,5.458-3.053,8.395a.094.094,0,0,0,.171.072,26.582,26.582,0,0,0,1.964-4.08c.567-1.279,1.081-2.639,1.765-3.864a26.5,26.5,0,0,1,1.5-2.261c-.144.5-.288,1.009-.432,1.531-.838,2.837-1.865,5.612-2.648,8.467a.094.094,0,0,0,.171.072c1.369-2.459,2.594-4.981,3.864-7.494.567-1.135,1.27-2.189,1.828-3.333.045-.1.108-.189.153-.288-.036.108-.072.225-.108.342a2.1,2.1,0,0,0-.063.225c-.108.18-.207.36-.3.549-.513,1.054-.91,2.18-1.351,3.261s-.748,2.225-1.144,3.333c-.423,1.171-.982,2.315-1.459,3.468-.126.315.387.522.54.234.585-1.09,1.09-2.234,1.7-3.306.531-.928,1.162-1.783,1.693-2.711-.162.387-.333.775-.486,1.171a2.693,2.693,0,0,0-.135.378c-.045.189.018.4-.018.567.036-.153-.09.117-.1.135a2.754,2.754,0,0,0-.117.387c-.162.585-.243,1.18-.432,1.765s-.351,1.153-.531,1.738a.08.08,0,0,0,.144.063c.288-.5.576-.991.865-1.477s.622-.9.946-1.351a6.209,6.209,0,0,1,.5-.739,3.52,3.52,0,0,0,.432-.45c-.171.351-.351.7-.513,1.054-.378.82-.64,1.7-.946,2.549-.108.306.342.585.549.324.54-.694,1.144-1.324,1.666-2.027s1.036-1.378,1.576-2.054a1.036,1.036,0,0,1,.072-.09c-.315.766-.6,1.522-.955,2.27s-.739,1.45-1.117,2.171c-.036.063.054.135.1.081.486-.64.964-1.279,1.459-1.9.477-.594.982-1.153,1.477-1.729a1.248,1.248,0,0,1-.063.441c-.18.441-.378.883-.585,1.315-.054.117-.126.225-.171.342s-.054.225-.09.342c-.018.063-.054.117-.072.171-.126.225-.252.441-.378.667-.054.09.081.2.144.117l.585-.739a2.807,2.807,0,0,0,.252-.207,2.2,2.2,0,0,0,.207-.3c.09-.126.162-.261.243-.387s.189-.234.279-.351c-.117.252-.225.5-.342.757a5.588,5.588,0,0,0-.369,1.216.206.206,0,0,0,.342.2c.18-.189.351-.378.513-.576a13.325,13.325,0,0,1,1.018-1,1.329,1.329,0,0,1,.423-.243,1.386,1.386,0,0,0,.279-.153,7.393,7.393,0,0,0-.414.793c-.108.252-.225.5-.333.757a4.292,4.292,0,0,0-.171.513.581.581,0,0,1-.072.081.224.224,0,0,0-.054.216,12.715,12.715,0,0,0-2.5,1.351,9.945,9.945,0,0,1-2.108,1.2,12.868,12.868,0,0,0-2.234.685.358.358,0,0,0-.018.585c-.09.1-.189.18-.279.3-.162.234.18.45.369.288a2.692,2.692,0,0,1,.712-.414,4.868,4.868,0,0,0,1.324-.153c.054.018.117.009.162.027.108.045.207.261.333.333a5.406,5.406,0,0,0,.919.36,6.517,6.517,0,0,0,3.864.279,4.6,4.6,0,0,1,2.261-.252c.694.135,1.378.351,2.054.54a18.822,18.822,0,0,0,1.964.576,10.329,10.329,0,0,1,2.009.306c2.243.775,4.143,1.973,4.954,4.324a4.794,4.794,0,0,0,.378.838c-.522-.252-1.045-.5-1.558-.775a11.356,11.356,0,0,0-1.756-1.009,8.1,8.1,0,0,0-2.279-.225,6.064,6.064,0,0,1-.8-.09c-.5-.189-1-.405-1.531-.558a9.588,9.588,0,0,0-4.224-.306.726.726,0,0,0-.27.117,2.015,2.015,0,0,1-1.684-.468c-1.072-.856-1.666-.594-2.945-.252-1.477.387-4.81-1-5.359,1.279a.108.108,0,0,0,.2.081,2.013,2.013,0,0,1,.18-.27.148.148,0,0,0,.18.045c1.955-.7,3.693,1.405,5.585,1.72a14.288,14.288,0,0,1,2.819.468,12.555,12.555,0,0,1,2.4,1.288c1.45.919,2.621,2.036,4.324,2.45,2.027.5,4.125-.036,6.134.468a10.821,10.821,0,0,1,3.243,1.576,8.41,8.41,0,0,0,.676.955,24.69,24.69,0,0,0,4.837,3.792c.027.054.054.1.081.153.91,1.612,2.648,2.549,4.152,3.495.153.09.3.18.441.27a.832.832,0,0,0,.27.162,14.76,14.76,0,0,0,4.477,2.054.934.934,0,0,0,.486-1.8,6.874,6.874,0,0,1-1.792-.964.979.979,0,0,0-.009-.279c-.225-.937-.459-1.865-.667-2.792.207-.775.45-1.54.685-2.3a45.212,45.212,0,0,1,1.91-5.3c.793-1.765,1.837-3.369,2.693-5.089.91-1.828,1.828-3.621,2.873-5.386.081-.135-.108-.3-.216-.171-2.342,2.675-4.99,5.017-6.972,7.953.018-.126.027-.252.036-.378.243-.45.5-.9.775-1.342,1.036-1.639,2.414-3.053,3.351-4.756.973-1.765,1.063-3.936,2.144-5.612.6-.928,1.09-1.9,1.729-2.8.685-.973,1.333-1.973,2-2.954.018-.027-.027-.063-.045-.036-.748.838-1.513,1.666-2.243,2.513-.775.883-1.657,1.621-2.414,2.513A8.272,8.272,0,0,0,271,124.112a21.142,21.142,0,0,1-1.387,3.089,11.78,11.78,0,0,1-1.955,2.171,12.98,12.98,0,0,0-1.351,1.63c-.072-.108-.153-.216-.234-.324a5.8,5.8,0,0,0,.585-.567c1.387-1.549,1.982-3.549,2.7-5.467.333-.883.685-1.747.991-2.621.387-1.126,1.639-1.837,2.432-2.657a20.069,20.069,0,0,0,2.126-2.873,41.513,41.513,0,0,0,2.369-3.819c.036-.072-.063-.162-.126-.1a36.685,36.685,0,0,0-2.495,3.288,19.084,19.084,0,0,1-2.45,3.171,8.039,8.039,0,0,1-.919.712c.306-.531.612-1.072.892-1.612.045-.081.081-.162.126-.243a12.01,12.01,0,0,0,.892-1.765,3.367,3.367,0,0,0,.144-.315q.216-.459.459-.919a.222.222,0,0,0,.18-.135,39.915,39.915,0,0,1,2.549-4.585c.459-.721.928-1.441,1.405-2.153a18.429,18.429,0,0,1,1.955-2.063,19.088,19.088,0,0,0,2.684-4.224,18.415,18.415,0,0,0,1.054-2.45,4.31,4.31,0,0,0,.351-2.567,1.057,1.057,0,0,0-.171-.27c.486-.685.964-1.387,1.432-2.1a.391.391,0,0,0,.063-.252c.1-.144.207-.279.306-.423.432-.594.874-1.2,1.3-1.8a7.6,7.6,0,0,0,.7-1.018c.459-.531.91-1.072,1.333-1.639a23.409,23.409,0,0,0,3.162-5.81c.4-1.072.748-2.162,1.144-3.243.18-.468.351-.964.522-1.459-.036.369-.036.757-.063,1.18a12.2,12.2,0,0,1-.558,2.828,46.868,46.868,0,0,1-2.585,5.54c-1.657,3.639-4.558,6.431-6.332,10.016a.1.1,0,0,0,.162.1,38.4,38.4,0,0,1,4.035-5.3,29.617,29.617,0,0,1,2.144-2.243,25.255,25.255,0,0,0,2.369-2.234,16.445,16.445,0,0,0,2.909-5.44c-.09.6-.189,1.2-.324,1.792a23.112,23.112,0,0,1-2.459,6.368c-1.009,1.774-1.991,3.639-3.162,5.3a31.618,31.618,0,0,0-3.4,5.594c-.126.288.27.549.432.252a29.9,29.9,0,0,1,4.08-5.684,36.484,36.484,0,0,0,4.269-5c0,.027-.009.054-.009.09a6.784,6.784,0,0,0,0,.856c-.1.351-.216.694-.342,1.027a55.348,55.348,0,0,1-2.729,5.035c-.811,1.6-1.3,3.351-1.973,5.008-.7,1.72-1.342,3.477-1.919,5.242-.036.117.135.162.18.054a35.686,35.686,0,0,1,2.72-5.675c.982-1.594,2.27-3,3.315-4.549.207-.306.405-.612.612-.91-.2,1.207-.36,2.4-.676,3.594a80.336,80.336,0,0,1-3.216,9.4c-.126.27-.252.549-.378.82a.125.125,0,0,0,.216.126,49.288,49.288,0,0,0,5.6-9.341c.063-.144.1-.288.162-.432-.009.1-.009.189-.018.288-.126,1.468-.261,2.954-.5,4.4a19.044,19.044,0,0,1-.7,2.909c-.91,1.828-1.982,3.585-3.008,5.323-.1.162.135.288.243.144.081-.108.153-.225.234-.333-.018.027-.036.063-.054.09-.1.153.144.3.243.144a36.357,36.357,0,0,0,2.2-3.765c1.045-1.621,2.036-3.27,3.008-4.945-.171,1.162-.315,2.333-.5,3.5A25.976,25.976,0,0,1,297,114.339c-.73,1.315-1.549,2.594-2.288,3.891-.126.225.2.5.369.288.964-1.27,1.919-2.54,2.846-3.828a42.23,42.23,0,0,0,2.432-4.071c.1-.18.189-.36.279-.54-.018.108-.045.216-.054.324a8.916,8.916,0,0,1-.351,2.054,19.96,19.96,0,0,1-1.576,4.035c-.207.36.306.793.585.459a10.453,10.453,0,0,0,1.892-3.441,11.583,11.583,0,0,1,.694-1.919c.342-.6.694-1.189,1-1.81.3-.594.639-1.153.991-1.711a3.74,3.74,0,0,1,1.054-1.279,4.279,4.279,0,0,1,1.225-.459,15.1,15.1,0,0,0-2.306,3.243,36.6,36.6,0,0,0-1.423,3.855c-.513,1.27-.973,2.558-1.369,3.873-.081.288.36.5.486.207.486-1.126,1.018-2.225,1.6-3.306a8.958,8.958,0,0,1,.955-1.5c.4-.477.82-.892,1.189-1.4.585-.811,1.135-1.684,1.765-2.459.5-.423,1.009-.847,1.558-1.225a5.393,5.393,0,0,1,2.063-.883c.108-.018.216-.018.315-.036a9.843,9.843,0,0,0-4.1,3.711,19.2,19.2,0,0,0-.982,1.72c-.153.306-.315.6-.459.91-.18.36-.243.739-.405,1.1-.612,1.369-1.648,2.486-2.117,3.927a.219.219,0,0,0,.36.216,18.811,18.811,0,0,0,2.414-3.1,5.434,5.434,0,0,1,.784-.793,8.152,8.152,0,0,0,.676-.8c.369-.459.748-.919,1.117-1.378a12.476,12.476,0,0,1,3.18-3.044,12.191,12.191,0,0,0-2.594,2.675,12.062,12.062,0,0,0-1.045,1.558c-.3.585-.531,1.207-.82,1.8a28.711,28.711,0,0,1-2.207,3.387c-.135.207.18.459.342.27.811-.928,1.576-1.964,2.468-2.81.45-.423.946-.8,1.432-1.18a9.742,9.742,0,0,0,1.261-1.324.125.125,0,0,0,.027-.036c-.009.018-.018.027-.027.045-.513.811-.955,1.657-1.441,2.477-.522.883-1.072,1.756-1.612,2.639a.11.11,0,0,0,.171.135c.721-.766,1.45-1.522,2.18-2.27a.879.879,0,0,0-.045.1c-.243.5-.5.991-.73,1.486a.156.156,0,0,0,.243.189c.369-.333.739-.676,1.126-.982.036-.027.081-.045.117-.072-.1.189-.216.369-.3.558-.306.757-.567,1.549-.838,2.324a15.042,15.042,0,0,0-.612,2.513.248.248,0,0,0,.477.135,14.669,14.669,0,0,1,.82-2.027l-.135.378a6.959,6.959,0,0,0-.342,2.054c0,.721-.045,1.432-.081,2.153a.169.169,0,0,0,.333.045,6.3,6.3,0,0,1,.694-1.937c.108-.189.207-.378.306-.567a13.125,13.125,0,0,0-.225,1.874c-.018.333.054.64.045.973,0,.351.009.694.036,1.045.018.27.432.369.486.063.054-.279.117-.549.189-.829a6.142,6.142,0,0,1,.333-.793.836.836,0,0,1,.045-.09c.144.243.288.486.45.721-.018.045-.054.09-.072.135a10.966,10.966,0,0,0-.712,1.9.326.326,0,0,0,.594.252,9.118,9.118,0,0,1,.955-1.333c.153.171.306.342.468.5-.027.045-.063.09-.09.135l-.3.459c-.207.315-.405.622-.612.937a.4.4,0,0,0,.144.54.381.381,0,0,0,.486-.108.217.217,0,0,0-.036.135,1.173,1.173,0,0,0-.748.567,1.551,1.551,0,0,0-.144.775c-.054.243-.081.477-.117.676a5.23,5.23,0,0,0,.477,3.558c.613,1.315,1.594,2.522,1.874,3.972.279,1.414-.279,2.963-.558,4.324-.441,2.054-.612,4.134,1.171,5.422a7.617,7.617,0,0,0,2.018.973,19.857,19.857,0,0,0,1.432,1.828c3.053,3.441,3.495,8.521,6.945,11.592a6.1,6.1,0,0,1,.54.54c.261.865.5,1.729.7,2.6.036.144.054.306.081.459v.081a7.054,7.054,0,0,0-.2,2.3,5.041,5.041,0,0,0,1.738,2.9,4.862,4.862,0,0,0,2.63,1.91c.423.27.847.549,1.279.838a13.885,13.885,0,0,1,2.09,1.63,9.981,9.981,0,0,0,1.432,1.459.251.251,0,0,0,.369-.225,2.912,2.912,0,0,0-.036-.567,8.647,8.647,0,0,1,.531.748.338.338,0,0,0,.612-.27,7.531,7.531,0,0,0-1.513-3.351,9.516,9.516,0,0,1-1.684-4.026c-.585-3.36-.243-6.737-1.423-10a40.72,40.72,0,0,0-4.567-8.458,16.27,16.27,0,0,1-1.324-2.207,15.345,15.345,0,0,1,4.747-.477c2.63.27,4.053,2.72,6.3,3.963a8.76,8.76,0,0,0,1.171.5,6.665,6.665,0,0,0,.847.378c2.468.9,5.4.973,8.008,1.162.2.018.423,0,.639,0a32.5,32.5,0,0,1,3.432,1.675c1.738.955,3.684,1.63,5.5,2.414,1.765.775,3.63,1.333,5.431,1.964,1.171.405,2.3.892,3.441,1.351.315.36.649.73,1,1.063,1.1,1.081,2.522,1.369,3.756,2.288.162.126.333-.135.2-.288a1.013,1.013,0,0,1-.117-.144.214.214,0,0,0,.108.027c.063.018.108-.081.081-.135a10.116,10.116,0,0,1-1.657-2.756,16.906,16.906,0,0,0-1.4-2.837,18.5,18.5,0,0,0-1.252-3.486,12.123,12.123,0,0,0-3.882-4.026,37.9,37.9,0,0,0-5.368-2.7c-1.783-1.108-3.576-2.162-5.4-3.189-1.063-1.27-1.819-2.81-2.918-4.08a25.857,25.857,0,0,0-4.486-3.954,52.109,52.109,0,0,1-6.773-5.476c-.09-.2-.162-.414-.261-.622a11.886,11.886,0,0,0-1.027-1.72,3.408,3.408,0,0,0-.2-.838,2.323,2.323,0,0,0-.847-1.171,15.11,15.11,0,0,1-.477-2.333c-.333-2.144-.3-4.314-.811-6.422-1.117-4.612-1.612-10.2-4.107-14.313a25.792,25.792,0,0,0,5.485-2.36,23.087,23.087,0,0,0,3.693-3,20.244,20.244,0,0,1,3.315-2.693,18.74,18.74,0,0,0,3.279-2.459c1.207-1.1,1.5-1.351,3.693-.892l.5.108c3.36.7,3.423.712,6.476,2.576a8.953,8.953,0,0,1,2.684,2.378,11.469,11.469,0,0,0,3.378,2.981l6.81,4.143a24.814,24.814,0,0,0,3.747,1.91,21.155,21.155,0,0,1,2.144,1.009c.531.414,1.063.829,1.549,1.279,1.333,1.288,1.576,2.639,2.432,4.08a6.176,6.176,0,0,1,.919,1.459c.18.73-.576,1.675-.757,2.387A5.32,5.32,0,0,0,380.26,123a11.486,11.486,0,0,0,3.774,2.6,11.026,11.026,0,0,1,4.486,3.612,4.034,4.034,0,0,1,.8,2.486c-.063,1.189-.874,2.153-1.081,3.3-.279,1.567,1.2,2.675,1.558,4.134.117.54,1.378.414,1.315-.117a8.243,8.243,0,0,0-.82-2.216c-.7-1.594.4-2.594,1.576-3.846a4.983,4.983,0,0,0,.919-5.026,10.1,10.1,0,0,0-4.053-4.486c-1.18-.784-3.171-1.459-3.756-2.594-.838-1.675.937-3.261,1.234-4.909a24.253,24.253,0,0,0,4.233,3.171c3.63,2.108,8.08,3.558,8.719,7.251.522,2.909-.7,5.837-.3,8.746.423,3.044,2.513,5.431,4.891,7.881,2.315,2.4,6.008,3.594,9.142,5.332a10.929,10.929,0,0,1,3.053,2.432,15.9,15.9,0,0,0,1.738,1.846,5.931,5.931,0,0,0,2.576,1.063c2.459.784,1.693,2.747,3.216,4.044,7.215,6.143,19.005,6.728,27.977,7.593a35.079,35.079,0,0,1,7.566,1.09,17.585,17.585,0,0,1,2.072.865c4.062,1.955,6.08,6.341,9.962,8.485a11.348,11.348,0,0,0,4.306,1.27v.144h18.654a4.142,4.142,0,0,1,4.089,3.576l3.909,29.517a1.826,1.826,0,0,0,1.81,1.585h.054a1.825,1.825,0,0,0,1.774-1.684l4.062-50.387,3.828,16.483.378,1.36h8.089a.831.831,0,0,1,.82.685l2.171,11.89a1.727,1.727,0,0,0,3.4-.027l1.54-9.629a3.45,3.45,0,0,1,3.423-2.918h22.419v-3.243H533.357Zm-260.69-61.592c-.126.243-.243.5-.36.739-.009.009-.009.018-.018.027-.234.333-.459.676-.694,1.009a1.566,1.566,0,0,0,.117-.531.3.3,0,0,0-.144-.252A4.112,4.112,0,0,0,272.667,112.609Zm-1.45,2.549a.981.981,0,0,1,.054-.1c.171-.252.342-.5.513-.748-.135.27-.243.54-.351.82-.117.252-.243.5-.36.739-.009.027,0,.054-.009.081-.531.838-1.063,1.666-1.594,2.5-.117.18-.225.369-.342.549.135-.3.27-.6.414-.9.369-.594.739-1.18,1.072-1.792C270.83,115.924,271.028,115.546,271.217,115.158Zm-2.684,2.18a10.142,10.142,0,0,1,2.234-3.09c-.072.171-.135.351-.207.513-.153.351-.315.694-.477,1.036-.018,0-.027-.009-.045,0a4.022,4.022,0,0,0-1.171,1.792c-.342.739-.667,1.486-.982,2.234-.081.189-.162.387-.243.576A11.116,11.116,0,0,1,268.533,117.338Zm-2.072-6.746.171-.225c.027-.018.063-.036.09-.054.09-.045.18-.1.27-.144.036-.018.081-.036.117-.054-.126.315-.243.6-.351.847a1.143,1.143,0,0,0-.667.315l-.171.144-.009.009a1.436,1.436,0,0,1,.135-.261C266.164,111.006,266.3,110.808,266.461,110.592Zm-3.738-17.24c.009-.036.027-.045.063-.036l.225.09c.009.009.018.009.018.027a.51.51,0,0,1-.234.54q-.257.176-.351.243c-.027.018-.027.009-.018-.018A5.1,5.1,0,0,0,262.723,93.352Zm-1.513,2.99.459-.757c.009-.018.009-.009.018,0l.2,1.747a.009.009,0,0,0,.009.009l.279-.036a.009.009,0,0,0,.009-.009c-.135-.6-.234-1.2-.315-1.765a1.4,1.4,0,0,1-.009-.207.033.033,0,0,1,.009-.027.034.034,0,0,1,.054-.009l.036.027c.009,0,.009.009.018.009.027,0,.045-.009.045-.036a1.331,1.331,0,0,0,0-.378.054.054,0,0,1,.009-.036c.054-.081.117-.162.171-.252a.784.784,0,0,1,.243-.243c.018-.009.162-.108.432-.279a.651.651,0,0,0,.3-.631c0-.018.009-.027.018-.018.7.207,1.153.333,1.36.405.324.1.6.2.856.279a.457.457,0,0,0,.216.036,2.2,2.2,0,0,0,.784-.153c.072-.027.171-.09.261-.135a.171.171,0,0,1,.117-.009,1.045,1.045,0,0,0,.378.027.951.951,0,0,0,.459-.279c.009-.009.009-.018.009-.036l-.018-.144c-.018-.009-.009-.018.018-.027a5.443,5.443,0,0,0,1.18-.892l.973-1.027a1.918,1.918,0,0,1,.522-.387c.027-.009.036-.009.027.027-.234.82-.585,2.108-1.063,3.864-.18.676-.3,1.108-.342,1.279a.29.29,0,0,1-.1.171c-.009.009-.018.018-.018.027a1.709,1.709,0,0,0-.1.522.814.814,0,0,1-.036.252c-.189.712-.441,1.63-.748,2.765a.069.069,0,0,1-.018.036c-.027.027-.045.045-.045.054a3.785,3.785,0,0,0-.117.486q-.054.3-.108.486-.662,2.5-1.4,5.107c-.018.081-.027.081-.027-.009,0-.045.009-.108.018-.189a.054.054,0,0,0-.009-.036,1.018,1.018,0,0,0-.117-.18.055.055,0,0,1,0-.072,1.738,1.738,0,0,1,.144-.171c.09-.1.072-.18.009-.288a1.1,1.1,0,0,1-.1-.216c-.009-.018,0-.027.018-.036a1.98,1.98,0,0,0,.27-.171.352.352,0,0,0,.153-.36,2.71,2.71,0,0,1-.072-.631.838.838,0,0,1,.045-.216c.018-.063.054-.18.1-.36a26.236,26.236,0,0,0,.558-2.855,2.92,2.92,0,0,0,.027-.54,1.286,1.286,0,0,0-.928-1.189,4.747,4.747,0,0,0-.622-.126,16.822,16.822,0,0,0-2.891-.2q-.757.014-1.567.054a1.534,1.534,0,0,1-.189-.009c-.009,0-.018-.009-.027-.018a.4.4,0,0,1,.027-.252.255.255,0,0,1,.279-.153c.2.018.351.045.45.063.117.027.135.126.135.234,0,.063.018.072.063.027a.229.229,0,0,0,.036-.144c-.009-.162-.081-.261-.225-.279s-.225-.045-.261-.054a.068.068,0,0,1-.036-.018,2.244,2.244,0,0,1-.27-.441c-.072-.126-.162-.225-.306-.18-.027.009-.045.009-.054.018-.036.009-.045-.009-.027-.045A3.684,3.684,0,0,1,261.21,96.342Zm-1.324,21.374c-.18.162-.36.333-.531.5a5.69,5.69,0,0,0-.324-.486c.306-.342.549-.622.667-.748.486-.54.811-.883.991-1.045.27-.243.6-.549,1.018-.928h0c-.171.378-.342.8-.522,1.252-.027.072-.108.252-.243.531C260.57,117.077,260.237,117.392,259.886,117.716Zm3.288-3.7a1.313,1.313,0,0,0-.063.171l-.234.694a1.737,1.737,0,0,0-.531,1.27l-.189.135a1.045,1.045,0,0,0-.45.072,3.146,3.146,0,0,0-.7.4l2.459-3.621c.009-.018.009-.009.009,0Zm1.369-12.232c-.018.072-.063.27-.135.585a4.392,4.392,0,0,0-.117,1.072c-.009.694-.009,1.207-.018,1.54a1.047,1.047,0,0,1-.072.378c-.072.171-.135.324-.189.441a.436.436,0,0,0-.018.288.987.987,0,0,0,.18.333.253.253,0,0,1,.063.171.488.488,0,0,1-.162.306.2.2,0,0,0-.072.135.555.555,0,0,0,.162.441.439.439,0,0,1,.09.2c.027.144.045.234.045.261-.018.207-.036.405-.045.612a.287.287,0,0,1-.063.153.276.276,0,0,0,0,.126l.081.378a.434.434,0,0,0,.063.135.457.457,0,0,1,.063.135c.018.054.036.117.054.18a1.43,1.43,0,0,0-.117,1.243c.009.027.027.045.036.072-.225.162-.4.288-.486.36a1.805,1.805,0,0,1-.82.234,1.815,1.815,0,0,0-.342.108c-.045.018-.117.054-.2.081a.485.485,0,0,0-.306-.108,2.44,2.44,0,0,0-1.018.342q-.459.216-.892.459c-.585.324-1.153.685-1.711,1.063a18.666,18.666,0,0,0-1.874,1.5c-.459-.486-.937-.955-1.405-1.387.009-.036.045-.063.045-.108.009-.1.036-.315.072-.64a2.618,2.618,0,0,1,.144-.613,1.026,1.026,0,0,1,.144-.279,3.78,3.78,0,0,0,.324-.468,1.823,1.823,0,0,0,.1-.234,3.9,3.9,0,0,1,.441-1.1,1.475,1.475,0,0,1,.631-.432c.189-.1.2-.324.279-.459a2.563,2.563,0,0,1,.252-.306,1.685,1.685,0,0,0,.3-.432,3.042,3.042,0,0,0,.153-.5c.153-.622.261-1.036.333-1.234.117-.351.252-.7.4-1.054q.149-.351.324-.919c.054-.171.243-.784.567-1.819a2.4,2.4,0,0,1,.18-.432.465.465,0,0,1,.4-.252c.1-.009.351-.027.739-.063a8.3,8.3,0,0,0,1.946-.45c.4-.144.8-.306,1.207-.486a.45.45,0,0,1,.108-.027c.108-.027.162.018.171.135A1.429,1.429,0,0,1,264.543,101.782Zm12.862,5.756q-.7,1.081-1.378,2.162c-.207.333-.4.685-.6,1.027-.081-.189-.36-.288-.459-.054-.748,1.666-1.973,3.09-2.828,4.7a6.517,6.517,0,0,0-.964,2.5,1.8,1.8,0,0,0,.018.315c-.342.7-.658,1.414-.973,2.126-.351.216-.694.423-1.018.64a5.185,5.185,0,0,0-1.729,2.252c-.829,1.738-1.351,3.72-2.783,5.062.333-.739.7-1.459,1.045-2.18.252-.531.5-1.081.73-1.63.063.063.162.081.207-.018.288-.631.585-1.252.883-1.874.153-.288.306-.567.459-.856a3.53,3.53,0,0,0,.973-1.279c.351-.549.667-1.126,1-1.684.649-1.108,1.3-2.216,1.937-3.333a.155.155,0,0,0,.018-.108c.64-1.1,1.279-2.189,1.91-3.3,0-.009.009-.009.009-.018a.083.083,0,0,0,.117-.036.391.391,0,0,0,.036-.063.236.236,0,0,0,.252-.135,21.682,21.682,0,0,1,1.036-1.91c.189-.306.378-.6.576-.9a3,3,0,0,0,.3-.45c0-.009.009-.018.009-.036.36-.549.73-1.09,1.09-1.639-.072.126-.144.252-.225.369-.018.036-.045.063-.063.1a.923.923,0,0,0-.126.2c-.036.054-.072.117-.108.171-.018.027.027.054.045.027.459-.658.937-1.3,1.423-1.937A7.784,7.784,0,0,1,277.405,107.538Zm39.227,22.807c-.405-.126-.8-.27-1.2-.423-.009-.018-.009-.036-.018-.054a.848.848,0,0,1-.09-.09.722.722,0,0,0-.171-.117c-.081-.045-.153-.09-.234-.135a.338.338,0,0,0-.261-.036.3.3,0,0,0-.117.063l-.027.027c-.036-.018-.081-.027-.117-.045h0c-.225-.081-.45-.144-.676-.207l.054-.027a.325.325,0,0,0,.135-.135c.009-.009.009-.018.018-.036s.018-.045.027-.072a.3.3,0,0,0,.009-.126.363.363,0,0,0-.081-.18.413.413,0,0,0-.189-.126.534.534,0,0,0-.207,0c-.018,0-.027.009-.045.009a1.051,1.051,0,0,0-.234.09,1.438,1.438,0,0,0-.207.144c.18-.234.351-.468.531-.712.108-.144.216-.3.333-.441a.009.009,0,0,1,.009-.009c.522.414,1.081.775,1.675,1.162a8.523,8.523,0,0,1,.784.594,10.213,10.213,0,0,1,.7.973A2.186,2.186,0,0,1,316.632,130.345Z" transform="translate(-34.73 -42.145)" fill="#fff"/>
        <path id="Path_89" data-name="Path 89" d="M311.016,57.369c.622-.027,1.216-.045,1.783-.063,1.036-.027,1.865-.027,3.063,0,.54.009,1.144.036,1.819.063l.351.009v-.937l-.225-.081a3.4,3.4,0,0,1-2.09-2.054,17.023,17.023,0,0,1-.621-5.53V42.931q3.283,3.391,6.629,6.909c2.414,2.549,4.9,5.188,7.368,7.863l.144.153,1.045-.324V47.173a17.483,17.483,0,0,1,.576-5.675,3.785,3.785,0,0,1,2.027-1.937l.2-.09V38.58l-.351.018c-.64.027-1.243.045-1.828.063-1.045.027-1.883.027-3.09,0-.54-.009-1.135-.036-1.783-.063l-.351-.018v.937l.225.081a3.364,3.364,0,0,1,2.081,1.865,17.4,17.4,0,0,1,.6,5.711v2.045c-2.252-2.207-4.152-4.116-5.666-5.675-1.666-1.711-3.18-3.333-4.495-4.8l-.1-.108h-.153c-.3,0-.748,0-1.342.009s-1.027.009-1.324.009c-.45,0-.937,0-1.477-.009l-2.54-.045v.937l.234.072a2.146,2.146,0,0,1,1.279.937,6.423,6.423,0,0,1,.369,2.756v5.458a17.51,17.51,0,0,1-.612,5.4,3.476,3.476,0,0,1-1.928,2.207l-.216.09.036.892Z" transform="translate(-62.117 -38.58)" fill="#fff"/>
      </g>
      <g id="Group_66" data-name="Group 66" transform="translate(266.233 41.242)">
        <path id="Path_90" data-name="Path 90" d="M335.5,86.775c.144-.1.261-.189.378-.261l.3-.225c.009-.009.027-.018.036-.027a.692.692,0,0,0,.117-.081l.225-.162.027-.027a.844.844,0,0,1,.126-.081l.108-.09a.318.318,0,0,0,.081-.1l.027-.018-.009-.117-.009-.009v-.1l-.054-.036a1.018,1.018,0,0,0-.225-.234.215.215,0,0,0-.162-.045.127.127,0,0,0-.09.072l-.126.126c-.018.018-.036.036-.036.045h0a.83.83,0,0,0-.072.045,1.578,1.578,0,0,0-.315.243.153.153,0,0,1-.054.054.24.24,0,0,1-.072.036l-.027.018-.036.063h0a2.608,2.608,0,0,1-.288.2,1.18,1.18,0,0,1-.135.045.454.454,0,0,0-.171.063.139.139,0,0,0-.072.018.271.271,0,0,0-.126.036l-.054.009-.036.018a.069.069,0,0,0-.045.018.32.32,0,0,0-.081.036l-.054.018c-.009.009-.027.018-.036.027a.153.153,0,0,0-.09,0l-.027-.171-.072.225-.018.018-.027-.018-.063.054c-.009.009-.018.009-.036.018-.279.1-.567.216-.874.36h0l-.2.027-.027.072a.032.032,0,0,1-.018.009L333,86.9l-.081.108-.027-.018-.018.063-.027.018a1.932,1.932,0,0,1-.288.144c-.135.072-.225.117-.261.135l-.072-.045-.063.1c0,.009-.009.009-.009.018l-.054.027a.928.928,0,0,1-.189.09l-.081-.054-.09.144h0a.533.533,0,0,0-.072.036.033.033,0,0,1-.027.009l-.09-.054-.063.135c-.009.009-.027.009-.054.027l-.135.063a.3.3,0,0,1-.054.027.091.091,0,0,1-.045.018l-.018.009c-.018,0-.045,0-.054.009l-.036.009-.009.018c-.009,0-.009,0-.018.009s-.027.009-.045.009c.009-.009.009-.018.018-.018l.144-.162.009-.027a.009.009,0,0,1,.009-.009c.009-.009.027-.018.036-.027s.009-.009.018-.009a.028.028,0,0,0-.018.009l.009-.009.045-.018.027-.036a4.369,4.369,0,0,1,.405-.351c.063-.045.117-.09.162-.126l.207-.162.027-.027a.392.392,0,0,1,.1-.081.514.514,0,0,0,.153-.126.293.293,0,0,0,.153-.117l.009-.018h0l.036-.009a.207.207,0,0,0,.153-.108v-.009a.091.091,0,0,0,.027-.009.6.6,0,0,0,.1-.036l.036-.027c.018-.009.027-.027.054-.054a.239.239,0,0,0,.045-.054.606.606,0,0,0,.108-.054l.108-.081c.009,0,.018-.009.027-.018a.776.776,0,0,0,.09-.063c.072-.036.18-.108.36-.225q.176-.108.432-.27a.672.672,0,0,1,.108-.063l.063-.036a1.506,1.506,0,0,0,.2-.135l.135-.081a.605.605,0,0,1,.153-.072l.072-.036a.471.471,0,0,1,.045-.027.054.054,0,0,1,.036-.009c.027-.009.054-.018.09-.027l.036-.018v-.009a.354.354,0,0,0,.162-.135.254.254,0,0,0,.045-.207l-.009-.036a.031.031,0,0,1-.009-.018l-.027-.063-.045-.045c-.027-.018-.045-.036-.063-.045l-.009-.036-.144-.1a.266.266,0,0,0-.135-.054.176.176,0,0,0-.153.045l-.432.279a1.184,1.184,0,0,0-.153.117.263.263,0,0,0-.126.072c-.072.036-.135.081-.207.126a.987.987,0,0,0-.189.126l-.567.369-.288.207c-.09.063-.171.108-.216.144a.268.268,0,0,0-.072.063c-.009.009-.018.009-.018.018l-.126.081a.367.367,0,0,0-.126.108H332.1l-.027.036-.009.009h-.009a.2.2,0,0,0-.072.045.5.5,0,0,0-.072.054l-.045.009-.018.027a.161.161,0,0,0-.063.045h-.027l-.045.072a.946.946,0,0,0-.189.135,2.733,2.733,0,0,0-.306.261l-.045.036-.018.018a.185.185,0,0,0-.1.081c-.009.009-.009.018-.018.018a2.2,2.2,0,0,0-.171.171,2.521,2.521,0,0,0-.2.225,2.376,2.376,0,0,0-.207.261,1.027,1.027,0,0,0-.126.234.091.091,0,0,1-.009.027.149.149,0,0,0-.018.117.2.2,0,0,0,.045.126v.018l-.009.054v.009a.089.089,0,0,0,.027.072.367.367,0,0,0,.1.2l.009.009a.514.514,0,0,0,.1.1l.054.018c.018.009.027.009.036.018a.473.473,0,0,0,.18.027.782.782,0,0,0,.234-.036.949.949,0,0,0,.27-.09.147.147,0,0,0,.054-.027c.009,0,.009,0,.018-.009l.009-.009c.018-.009.045-.027.063-.036a.12.12,0,0,1,.063-.027.218.218,0,0,0,.153-.1h0a.237.237,0,0,0,.144-.081.112.112,0,0,1,.027-.018.582.582,0,0,0,.126-.054c.009,0,.018-.009.027-.009s.018-.009.027-.009a.126.126,0,0,0,.108-.018l.054.045.054-.144.018-.018a.2.2,0,0,1,.045-.027.128.128,0,0,0,.135-.063.407.407,0,0,0,.063-.063.218.218,0,0,0,.117-.036.343.343,0,0,0,.09-.081l-.018.018h0l.027-.009a.262.262,0,0,0,.144-.081c.027-.018.036-.027.054-.027a.236.236,0,0,0,.081-.045.3.3,0,0,0,.108-.036.217.217,0,0,0,.072-.054.4.4,0,0,0,.108-.054c.018-.009.036-.027.054-.036l.081-.027v-.009c.009,0,.009-.009.018-.009l.063.009-.081.117c0,.009-.009.009-.009.018l-.045.027a.161.161,0,0,0-.072.081v.009a1.325,1.325,0,0,0-.243.27c-.036.045-.054.072-.072.081a.171.171,0,0,0-.063.072l-.018.018h0a.467.467,0,0,0-.135.135l-.045.063a1.829,1.829,0,0,0-.2.234l-.027.054-.009.009a.7.7,0,0,0-.117.117.151.151,0,0,0-.027.135l-.018.018.027.063a.033.033,0,0,0,.009.027h0l-.027.117.063.045c0,.009.009.018.009.027a.222.222,0,0,0,.054.144.27.27,0,0,0,.081.09.168.168,0,0,0,.225-.045c.027-.027.072-.1.144-.2s.144-.216.261-.369a1.213,1.213,0,0,1,.081-.1l.027.009.063-.126.036-.027.036-.063.027-.027c.009,0,.009-.009.018-.018l.333-.054-.225-.063a.009.009,0,0,1,.009-.009.676.676,0,0,1,.063-.072.494.494,0,0,0,.1-.1l.144-.153a.826.826,0,0,0,.09-.09.121.121,0,0,0,.063-.054l.036-.036.216-.18a.772.772,0,0,0,.162-.135l.072-.054a.2.2,0,0,0,.081-.063.393.393,0,0,0,.063-.054l.018-.009a.393.393,0,0,0,.063-.054l.108-.072.027-.018a.341.341,0,0,1,.072-.045l.063-.045a1.58,1.58,0,0,1,.162-.1c.027-.018.054-.036.054-.045s.018-.009.036-.018Zm-3.369,1.369v-.018c.009,0,.009-.009.018-.009h.009l.018.018A.387.387,0,0,1,332.129,88.144Z" transform="translate(-330.304 -84.367)" fill="#fff"/>
        <path id="Path_91" data-name="Path 91" d="M339.7,88.494a.483.483,0,0,0,.09-.063l.063-.018a.211.211,0,0,0,.09-.045c.009,0,.018-.009.027-.009l.036-.018a.27.27,0,0,0,.072-.036h0a.429.429,0,0,0,.126-.054.321.321,0,0,0,.108-.117.245.245,0,0,0,.018-.207l-.045-.207a.709.709,0,0,0-.063-.207,1.165,1.165,0,0,1-.09-.2l-.045-.081-.018-.027a.318.318,0,0,0-.1-.081,1.642,1.642,0,0,0-.612-.234.627.627,0,0,0-.279-.018.252.252,0,0,1-.054-.009.257.257,0,0,0-.144-.009h-.036c-.117-.009-.225-.009-.333-.009h-.1l-.063-.036-.036.045H338.3a1.944,1.944,0,0,0-.252.018c-.027,0-.054.009-.1.009-.162.018-.252.018-.279.027h-.027l-.027-.009a1.036,1.036,0,0,0-.126.018,1.743,1.743,0,0,0-.261.036c-.063.009-.1.018-.117.018a.148.148,0,0,0-.126.018c-.009,0-.018.009-.036.009q-.176.054-.378.135a3.3,3.3,0,0,0-.351.162,1.5,1.5,0,0,0-.477.432.722.722,0,0,0-.108.243.837.837,0,0,1-.036.117,1.085,1.085,0,0,0-.045.3.784.784,0,0,0,.027.288.286.286,0,0,1,.018.117c0,.036.009.072.009.108a.156.156,0,0,0,.054.1s0-.009.027.063a1.44,1.44,0,0,0,.117.189l.045.072c.009.018.009.036.018.045a.46.46,0,0,0,.108.144.148.148,0,0,1,.045.054c.027.036.045.063.054.072a.242.242,0,0,0,.09.117.839.839,0,0,0,.045.072l.081.108c.036.045.063.081.081.1v.036l.036.027a.162.162,0,0,0,.054.081h0a.608.608,0,0,1,.063.09l.036.054a1.376,1.376,0,0,1,.126.27.926.926,0,0,1,.063.225.489.489,0,0,1-.072.072,1.514,1.514,0,0,1-1.054.189.543.543,0,0,0-.225-.018.962.962,0,0,1-.27-.081.691.691,0,0,0-.171-.045l-.063-.081-.09-.072-.054-.027-.036-.036-.153-.054a.306.306,0,0,0-.108-.108.742.742,0,0,1-.288-.432.284.284,0,0,1,0-.126.323.323,0,0,1,.036-.1c0-.009.009-.009.009-.018l.072-.09c0-.009.009-.009.009-.018a.092.092,0,0,0,.045-.054l.027-.027a1.381,1.381,0,0,0,.144-.1.507.507,0,0,0,.1-.1l.063-.1-.1-.063c-.054-.036-.117-.009-.171.009a.145.145,0,0,0-.081.027l-.027.018a.536.536,0,0,0-.054.036.139.139,0,0,0-.108.063.184.184,0,0,0-.09.081,1.6,1.6,0,0,0-.18.405,1.336,1.336,0,0,0-.054.225.815.815,0,0,0,.009.207.507.507,0,0,0,.009.063.125.125,0,0,0,.009.126.318.318,0,0,1,.009.054.741.741,0,0,0,.279.405l.027.027c.036.063.117.1.135.117l.018.036.108.054h0l.063.054c.009,0,.009.009.018.009l.018.027h.018a.227.227,0,0,0,.081.036.124.124,0,0,0,.036.027h0a.386.386,0,0,0,.117.045l.018.009a.694.694,0,0,0,.135.054h.009l.027.027L335,91.6h0l.27.081.072-.045c.018.009.036.009.054.018l.018.036.027.018c.018.009.036.018.081.036a.175.175,0,0,0,.072.009l.09.018.036-.045a.31.31,0,0,0,.081.009l.162.036a.311.311,0,0,0,.162-.018.289.289,0,0,0,.153-.018.319.319,0,0,0,.081-.036.261.261,0,0,0,.153-.027l.045-.018c.2-.054.252-.09.27-.135a.18.18,0,0,0,.09-.072.215.215,0,0,0,.027-.063.277.277,0,0,1,.036-.081l.045.018.063-.1a.475.475,0,0,0,.054-.171.8.8,0,0,0,0-.207.192.192,0,0,0-.027-.108v-.045c-.009-.045-.009-.081-.018-.117v-.027c.018-.063-.018-.153-.1-.342a2.137,2.137,0,0,0-.135-.252,1.007,1.007,0,0,0-.153-.234c-.036-.054-.09-.126-.162-.225l-.189-.27a.217.217,0,0,0-.054-.072.482.482,0,0,1-.063-.09.892.892,0,0,0-.1-.153l-.018-.027a.537.537,0,0,1-.036-.054l-.108-.216-.045-.126c-.036-.081.027-.2.081-.288a.531.531,0,0,0,.036-.072.314.314,0,0,0,.081-.054.548.548,0,0,1,.09-.063l.036-.027a.253.253,0,0,0,.072-.072h0a.5.5,0,0,0,.189-.054.423.423,0,0,0,.081-.054.349.349,0,0,1,.1-.027l.063-.027a.418.418,0,0,0,.081-.027.033.033,0,0,0,.027-.009.2.2,0,0,0,.117-.045h0a.19.19,0,0,0,.153-.054l.072-.009a.792.792,0,0,1,.18-.027c.027,0,.063-.009.1-.009a.539.539,0,0,0,.108-.018h.018c.018,0,.207-.009.567-.045h.153a2.9,2.9,0,0,1,.531.027,2.836,2.836,0,0,1,.333.054.826.826,0,0,1,.207.081c.081.045.144.081.2.117l-.036.027a.27.27,0,0,1-.072.036l-.054.027a.792.792,0,0,1-.126.063l-.135.072c-.279.144-.54.3-.775.441a1.561,1.561,0,0,0-.153.1.174.174,0,0,0-.117.09.3.3,0,0,0-.054.171.439.439,0,0,0-.027.063.122.122,0,0,0,0,.081.228.228,0,0,0,.036.153.154.154,0,0,0,.09.135.238.238,0,0,0,.333-.09.387.387,0,0,1,.063-.063c.027-.018.135-.081.342-.2.036-.018.036-.027.036-.018a.14.14,0,0,0,.117-.063l.054-.027a.521.521,0,0,0,.063-.036.143.143,0,0,0,.117-.072.374.374,0,0,0,.108-.036.143.143,0,0,0,.108-.045A.757.757,0,0,1,339.7,88.494Z" transform="translate(-330.652 -84.61)" fill="#fff"/>
        <path id="Path_92" data-name="Path 92" d="M344.051,90.416l-.045-.216a.71.71,0,0,0-.063-.207,1.163,1.163,0,0,1-.09-.2l-.045-.081-.018-.027a.318.318,0,0,0-.1-.081,1.642,1.642,0,0,0-.613-.234.626.626,0,0,0-.279-.018.252.252,0,0,1-.054-.009.257.257,0,0,0-.144-.009h-.036c-.117-.009-.225-.009-.333-.009h-.1l-.063-.036-.036.045h-.009a1.944,1.944,0,0,0-.252.018c-.027,0-.054.009-.1.009-.162.018-.252.018-.279.027h-.027l-.027-.009a1.036,1.036,0,0,0-.126.018,1.743,1.743,0,0,0-.261.036c-.063.009-.1.018-.117.018a.148.148,0,0,0-.126.018c-.009,0-.018.009-.036.009q-.176.054-.378.135a3.3,3.3,0,0,0-.351.162,1.5,1.5,0,0,0-.477.432.722.722,0,0,0-.108.243.837.837,0,0,1-.036.117,1.086,1.086,0,0,0-.045.3.784.784,0,0,0,.027.288.286.286,0,0,1,.018.117c0,.036.009.072.009.108a.156.156,0,0,0,.054.1s0-.009.027.063a1.437,1.437,0,0,0,.117.189l.045.072c.009.018.009.036.018.045a.46.46,0,0,0,.108.144.149.149,0,0,1,.045.054c.027.036.045.063.054.072a.242.242,0,0,0,.09.117.83.83,0,0,0,.045.072l.081.108c.036.045.063.081.081.1v.036l.036.027a.162.162,0,0,0,.054.081h0a.609.609,0,0,1,.063.09l.036.054a1.378,1.378,0,0,1,.126.27.926.926,0,0,1,.063.225.486.486,0,0,1-.072.072,1.514,1.514,0,0,1-1.054.189.542.542,0,0,0-.225-.018.962.962,0,0,1-.27-.081.691.691,0,0,0-.171-.045l-.063-.081-.09-.072-.054-.027-.036-.036-.153-.054a.306.306,0,0,0-.108-.108.742.742,0,0,1-.288-.432.285.285,0,0,1,0-.126.324.324,0,0,1,.036-.1c0-.009.009-.009.009-.018l.072-.09c0-.009.009-.009.009-.018a.092.092,0,0,0,.045-.054l.027-.027a1.375,1.375,0,0,0,.144-.1.507.507,0,0,0,.1-.1l.063-.1-.1-.063c-.054-.036-.117-.009-.171.009a.145.145,0,0,0-.081.027l-.027.018a.529.529,0,0,0-.054.036.139.139,0,0,0-.108.063.184.184,0,0,0-.09.081,1.6,1.6,0,0,0-.18.405,1.342,1.342,0,0,0-.054.225.815.815,0,0,0,.009.207.508.508,0,0,0,.009.063.125.125,0,0,0,.009.126.318.318,0,0,1,.009.054.741.741,0,0,0,.279.405l.027.027c.036.063.117.1.135.117l.018.036.108.054h0l.063.054c.009,0,.009.009.018.009l.018.027h.018a.227.227,0,0,0,.081.036.124.124,0,0,0,.036.027h0a.386.386,0,0,0,.117.045l.018.009a.694.694,0,0,0,.135.054h.009l.027.027.045.027h0l.27.081.072-.045c.018.009.036.009.054.018l.018.036.027.018c.018.009.036.018.081.036a.175.175,0,0,0,.072.009l.09.018.036-.045a.31.31,0,0,0,.081.009l.162.036a.312.312,0,0,0,.162-.018.289.289,0,0,0,.153-.018.319.319,0,0,0,.081-.036.261.261,0,0,0,.153-.027l.045-.018c.2-.054.252-.09.27-.135a.18.18,0,0,0,.09-.072.215.215,0,0,0,.027-.063.277.277,0,0,1,.036-.081l.045.018.063-.1a.475.475,0,0,0,.054-.171.8.8,0,0,0,0-.207.192.192,0,0,0-.027-.108v-.045c-.009-.045-.009-.081-.018-.117v-.027c.018-.063-.018-.153-.1-.342a2.128,2.128,0,0,0-.135-.252,1.007,1.007,0,0,0-.153-.234c-.036-.054-.09-.126-.162-.225l-.189-.27a.217.217,0,0,0-.054-.072.481.481,0,0,1-.063-.09.9.9,0,0,0-.1-.153l-.018-.027a.532.532,0,0,1-.036-.054l-.108-.216-.045-.126c-.036-.081.027-.2.081-.288a.539.539,0,0,0,.036-.072.314.314,0,0,0,.081-.054.546.546,0,0,1,.09-.063l.036-.027a.252.252,0,0,0,.072-.072h0a.5.5,0,0,0,.189-.054.423.423,0,0,0,.081-.054.349.349,0,0,1,.1-.027l.063-.027a.418.418,0,0,0,.081-.027.033.033,0,0,0,.027-.009.2.2,0,0,0,.117-.045h0a.19.19,0,0,0,.153-.054l.072-.009a.792.792,0,0,1,.18-.027c.027,0,.063-.009.1-.009a.539.539,0,0,0,.108-.018h.018c.018,0,.207-.009.567-.045h.153a2.9,2.9,0,0,1,.531.027,2.84,2.84,0,0,1,.333.054.827.827,0,0,1,.207.081c.081.045.144.081.2.117l-.036.027a.269.269,0,0,1-.072.036l-.054.027a.8.8,0,0,1-.126.063l-.135.072c-.279.144-.54.3-.775.441a1.567,1.567,0,0,0-.153.1.174.174,0,0,0-.117.09.3.3,0,0,0-.054.171.439.439,0,0,0-.027.063.122.122,0,0,0,0,.081.228.228,0,0,0,.036.153.154.154,0,0,0,.09.135.238.238,0,0,0,.333-.09.387.387,0,0,1,.063-.063c.027-.018.135-.081.342-.2.036-.018.036-.027.036-.018a.14.14,0,0,0,.117-.063l.054-.027a.516.516,0,0,0,.063-.036.143.143,0,0,0,.117-.072.373.373,0,0,0,.108-.036.143.143,0,0,0,.108-.045.3.3,0,0,0,.108-.054.482.482,0,0,0,.09-.063l.063-.018a.211.211,0,0,0,.09-.045c.009,0,.018-.009.027-.009l.036-.018a.269.269,0,0,0,.072-.036h0a.429.429,0,0,0,.126-.054.32.32,0,0,0,.108-.117A.237.237,0,0,0,344.051,90.416Z" transform="translate(-331.021 -84.856)" fill="#fff"/>
      </g>
    </g>
    <g id="Group_68" data-name="Group 68" transform="translate(138.846 180.815)">
      <path id="Path_93" data-name="Path 93" d="M174.478,196.5H150.32v28.238h6.467V213.731h17.69c2.243,0,3.873-.432,4.873-1.3a5.191,5.191,0,0,0,1.513-4.152v-6.305a5.216,5.216,0,0,0-1.513-4.179Q177.851,196.5,174.478,196.5Zm.054,10.124a2.083,2.083,0,0,1-.631,1.747,3.937,3.937,0,0,1-2.342.5H156.787v-7.485h14.772a3.956,3.956,0,0,1,2.342.5,2.086,2.086,0,0,1,.631,1.72Z" transform="translate(-150.32 -196.491)" fill="#fff"/>
      <path id="Path_94" data-name="Path 94" d="M198.883,215.284h11.142V211.3H198.883v-5.053h19.132V202.16H193.19V225.3H218.3v-4.324h-19.42Z" transform="translate(-154.576 -197.053)" fill="#fff"/>
      <path id="Path_95" data-name="Path 95" d="M239.936,202.16,226.2,225.3h5.639l2.909-5.08H250.06l2.909,5.08H259.3l-13.943-23.14ZM237.162,216l5.206-9.647,5.4,9.647Z" transform="translate(-157.852 -197.053)" fill="#fff"/>
      <path id="Path_96" data-name="Path 96" d="M296.725,202.16h-8.179l-13.493,9.35v-9.35H269.37V225.3h5.684V214.851L289.591,225.3h8.926l-17.8-12.421Z" transform="translate(-162.138 -197.053)" fill="#fff"/>
      <path id="Path_97" data-name="Path 97" d="M333.235,219.657h-16.4l16.591-10.07a9.2,9.2,0,0,0,3.035-2.594,6.478,6.478,0,0,0,.631-3.153V202.02q0-3.175-1.324-4.351t-5.143-1.18H316.112q-3.824,0-5.134,1.18t-1.306,4.351v3.657l5.585,1.441v-5.828h16.087v3.684L311.816,217a11.011,11.011,0,0,0-2.792,2.27,4.631,4.631,0,0,0-.784,2.882v2.567h23.752q3.824,0,5.143-1.18t1.324-4.351v-2.243l-5.206-1.468v4.179Z" transform="translate(-165.996 -196.49)" fill="#fff"/>
      <path id="Path_98" data-name="Path 98" d="M380.428,196.5H356.27v28.238h6.467V213.731h17.69c2.243,0,3.873-.432,4.873-1.3a5.191,5.191,0,0,0,1.513-4.152v-6.305A5.216,5.216,0,0,0,385.3,197.8Q383.8,196.5,380.428,196.5Zm.054,10.124a2.083,2.083,0,0,1-.631,1.747,3.956,3.956,0,0,1-2.342.5H362.737v-7.485h14.772a3.956,3.956,0,0,1,2.342.5,2.086,2.086,0,0,1,.631,1.72Z" transform="translate(-170.764 -196.491)" fill="#fff"/>
      <path id="Path_99" data-name="Path 99" d="M404.833,215.284h11.142V211.3H404.833v-5.053h19.132V202.16H399.14V225.3h25.121v-4.324H404.833Z" transform="translate(-175.02 -197.053)" fill="#fff"/>
      <path id="Path_100" data-name="Path 100" d="M445.886,202.16,432.15,225.3h5.639l2.909-5.08H456.01l2.909,5.08h6.332l-13.943-23.14ZM443.112,216l5.206-9.647,5.4,9.647Z" transform="translate(-178.297 -197.053)" fill="#fff"/>
      <path id="Path_101" data-name="Path 101" d="M486.669,212.879l16.006-10.719H494.5l-13.484,9.35v-9.35H475.32V225.3h5.693V214.851L495.541,225.3h8.926Z" transform="translate(-182.582 -197.053)" fill="#fff"/>
    </g>
  </g>
</svg>
