<svg id="Component_13_6" data-name="Component 13 – 6" xmlns="http://www.w3.org/2000/svg" width="38.016" height="38.028" viewBox="0 0 38.016 38.028">
  <path id="Path_9" data-name="Path 9" d="M501.533.034a13.152,13.152,0,0,0,1.437.159,19.108,19.108,0,0,1,16.3,16.3,13.084,13.084,0,0,0,.159,1.438c-.03.739.041,1.491,0,2.228A19.071,19.071,0,0,1,491.236,35.7c-2.558-1.4-6.187-4.625-7.389-7.316-.342-.767.233-1.295.907-.813a17.824,17.824,0,1,0,.9-18.5,18.241,18.241,0,0,0-2.013,16.18.587.587,0,0,1-1.08.257,11.2,11.2,0,0,1-.672-2.225A19.073,19.073,0,0,1,499.305.034Z" transform="translate(-481.426 -0.034)" fill="#fff"/>
  <path id="Path_10" data-name="Path 10" d="M508.214,35.247l-1.9,5.272a2.131,2.131,0,0,1-4.085-1.19l2.637-7.395a11.4,11.4,0,0,1-1.036-3.633c-.277-3,.977-9.08,4.941-8.954,4.243.136,2.365,6.424,1.721,8.859-.253.956-.57,1.9-.852,2.847,3.513,2.459,7.007-.847,8.171-4.143,3.295-9.336-9.577-13.8-14.443-6.574a7.754,7.754,0,0,0-.95,7,8.908,8.908,0,0,1,.818,1.93,2.117,2.117,0,0,1-3.171,2.132c-1.158-.639-2.043-3.562-2.228-4.828a12.268,12.268,0,0,1,2.324-9.072c7.416-9.976,24.709-3.989,22.2,8.91-.979,5.029-5.43,10.329-10.991,9.727a13.515,13.515,0,0,1-3.156-.89m-.72-1.314c.419-.467,1.183.177,1.634.361,8,3.265,14.306-6.866,11.67-13.828-2.016-5.325-8.389-7.832-13.715-6.368a11.141,11.141,0,0,0-7.653,14c.283.853.914,2.751,2.079,2.336,1.236-.441-.017-2.124-.278-2.875-1.8-5.178,1.837-10.872,7.116-11.826,5.8-1.049,11.913,2.961,11.143,9.29-.541,4.446-4.553,9.642-9.515,7.605-.545-.224-1.666-.8-1.6-1.484a27.774,27.774,0,0,1,.928-3.088c.447-1.671,1.183-4.3.978-5.987-.252-2.07-2.436-1.8-3.554-.526-1.854,2.107-2.159,6.429-1.173,8.968.155.4.6,1.015.574,1.421-.678,2.393-1.761,4.714-2.523,7.064-.192.593-.448,1.534.425,1.731.936.212,1.132-.555,1.414-1.228.763-1.819,1.254-3.758,2.047-5.567" transform="translate(-491.522 -7.763)" fill="#fff"/>
</svg>
