<svg id="Component_17_1" data-name="Component 17 – 1" xmlns="http://www.w3.org/2000/svg" width="38.016" height="38" viewBox="0 0 38.016 38">
  <g id="Component_14_7" data-name="Component 14 – 7">
    <path id="Path_7" data-name="Path 7" d="M341.072.071l2.82.407c14.067,2.92,19.961,20.256,10.385,31.1a19.025,19.025,0,0,1-32.905-8.57l-.408-2.821c.03-.738-.041-1.49,0-2.227A19.178,19.178,0,0,1,338.846.071ZM339.053,1.28a17.8,17.8,0,1,0,16.176,26.944C362.54,16.06,353.143.5,339.053,1.28" transform="translate(-320.951 -0.071)" fill="#fff"/>
  </g>
  <path id="Path_8" data-name="Path 8" d="M364.48,28.052c.1.082,1.4-.852,1.724-.054.168.415-.18.8-.4,1.118a10.685,10.685,0,0,1-2.245,2.282,3.779,3.779,0,0,0-.117,1.293,14.71,14.71,0,0,1-2.79,7.23,8.023,8.023,0,0,1-.952,1.125.607.607,0,0,1-.913-.691,14.114,14.114,0,0,0,3.468-7.812,7.337,7.337,0,0,1,.094-1.612c.2-.444,1.178-.885,1.464-1.357-.536-.087-1.737.483-1.971-.256s1.006-1.04,1.3-1.561a7.4,7.4,0,0,1-1.963.366c-.248-.046-.932-.747-1.279-.947a4.834,4.834,0,0,0-7.211,3.669c-.056.375.134.964-.325,1.16a5.233,5.233,0,0,1-2.239-.246,14.943,14.943,0,0,1-6.794-3.78,4.3,4.3,0,0,0,1.3,4.3c.312.275.911.476.93.932.04.959-1.354.565-1.934.555a3.7,3.7,0,0,0,1.805,2.684c.382.231,1.435.49,1.518.857.2.889-.691.823-1.282.914-.072.011-.163-.027-.111.108a5.425,5.425,0,0,0,.777.931,4.069,4.069,0,0,0,1.746.925c.511.124,1.815.086,1.427.983-.27.625-2.628,1.781-3.318,2.024l-1.745.517a13.44,13.44,0,0,0,10.675-.639c.4-.208,1.59-1.069,1.843-1.126a.6.6,0,0,1,.581,1.027,6.991,6.991,0,0,1-1.011.7,14.522,14.522,0,0,1-14.512.2c-.294-.179-.607-.357-.532-.774.128-.717,1.427-.458,1.954-.5a11.014,11.014,0,0,0,3.97-1.262c.054-.072-.926-.5-1.033-.561a5.573,5.573,0,0,1-2.138-2.389c-.209-.484-.385-.844-.027-1.306a5.37,5.37,0,0,1-1.839-3.211c-.1-.672-.246-1.561.658-1.624a5.546,5.546,0,0,1-.7-5.157c.194-.516.448-1.072,1.1-.734.349.18,1.334,1.328,1.792,1.7a13.33,13.33,0,0,0,6.265,2.745,6.157,6.157,0,0,1,2.384-4.259,6.039,6.039,0,0,1,6.524-.453c.43.235.8.6,1.221.788a7.584,7.584,0,0,0,1.21-.282c.479-.155,1.586-.828,1.965-.751.993.2-.021,1.761-.316,2.213" transform="translate(-333.675 -15.732)" fill="#fff"/>
</svg>
