<svg id="Component_21_1" data-name="Component 21 – 1" xmlns="http://www.w3.org/2000/svg" xmlns:xlink="http://www.w3.org/1999/xlink" width="25" height="25" viewBox="0 0 25 25">
  <defs>
    <clipPath id="clip-path">
      <rect id="Rectangle_25" data-name="Rectangle 25" width="25" height="25" fill="none"/>
    </clipPath>
  </defs>
  <g id="Group_62" data-name="Group 62" clip-path="url(#clip-path)">
    <path id="Path_46" data-name="Path 46" d="M70.224,23.993a14.8,14.8,0,0,0,2.2-1.094.964.964,0,0,1,.147-.229c.5-.6-.209-.767-.432-.8a13.055,13.055,0,0,1-18.6-4.831,12.555,12.555,0,0,1,2.493-14.8c.148-.121.079.034.056.1-.133.388-.407.751.056,1.048.267.17.5.044.694-.176A23.366,23.366,0,0,0,57.871.674c.063-.362-.01-.582-.4-.675L54.594.041a.517.517,0,0,0-.218.916c.227.207,1.065.09,1.38.058.064.063-.04.147-.084.192-2.691,2.762-4.2,5.19-4.524,9.078-.838,10.066,9.606,17.5,19.077,13.709" transform="translate(-51.1 0.001)"/>
    <path id="Path_47" data-name="Path 47" d="M5.314,7.5a10.813,10.813,0,0,0,.809,19.053c7.8,3.822,16.906-2.367,16-10.872C21.272,7.722,12.241,3.389,5.314,7.5m.543.882c6.684-3.955,15.3.751,15.276,8.462-.023,8.035-9.414,12.664-16,7.916A9.774,9.774,0,0,1,5.858,8.381" transform="translate(2.816 -5.539)"/>
    <path id="Path_48" data-name="Path 48" d="M93.648,80.665a1.612,1.612,0,0,0,1,3.062c.591-.156.843-.589,1.151-1.055.973-.1,2.12.1,3.07-.017.631-.075.657-.955-.263-1.031s-1.946.067-2.875.013a1.746,1.746,0,0,0-1.019-.974L94.7,76.077a.529.529,0,0,0-1.046-.056Zm.56.927a.592.592,0,1,1-.042,1.184.592.592,0,1,1,.042-1.184" transform="translate(-80.405 -70.726)"/>
    <path id="Path_49" data-name="Path 49" d="M82.1,268.633a.6.6,0,0,0-.27.581,4.59,4.59,0,0,0,.8,1.162.526.526,0,0,0,.744-.7c-.2-.367-.766-1.279-1.271-1.039" transform="translate(-63.816 -251.3)"/>
    <path id="Path_50" data-name="Path 50" d="M232.18,52.518a.526.526,0,0,0-.361.563,4.635,4.635,0,0,0,.8,1.163.519.519,0,0,0,.744-.7c-.193-.357-.711-1.211-1.18-1.022" transform="translate(-223.66 -49.111)"/>
    <path id="Path_51" data-name="Path 51" d="M47.342,88.057a2.855,2.855,0,0,0-.983.773.5.5,0,0,0,.615.708,6.55,6.55,0,0,0,1.171-.852c.262-.44-.267-.877-.8-.629" transform="translate(-26.255 -82.32)"/>
    <path id="Path_52" data-name="Path 52" d="M263.432,238.027c-.5.235-1.641,1.1-.647,1.466.262.1,1.329-.62,1.471-.836.292-.445-.252-.9-.823-.63" transform="translate(-256.563 -222.625)"/>
    <path id="Path_53" data-name="Path 53" d="M136.992,29.835a.651.651,0,0,0-.326.246,11.956,11.956,0,0,0-.24,1.3.525.525,0,0,0,.99.176,9.07,9.07,0,0,0,.235-1.25.511.511,0,0,0-.659-.467" transform="translate(-121.608 -27.885)"/>
    <path id="Path_54" data-name="Path 54" d="M283.21,142.226a.51.51,0,0,0-.172.926,6.635,6.635,0,0,0,1.317.27.507.507,0,0,0,.269-.945,9.726,9.726,0,0,0-1.413-.251" transform="translate(-278.436 -133.068)"/>
    <path id="Path_55" data-name="Path 55" d="M24.256,189.5a.519.519,0,0,0-.03.944,11.545,11.545,0,0,0,1.278.217.507.507,0,0,0,.268-.933,5.43,5.43,0,0,0-1.515-.228" transform="translate(-2.579 -177.288)"/>
    <path id="Path_56" data-name="Path 56" d="M183.687,288.589a.466.466,0,0,0-.284.3,9.132,9.132,0,0,0-.224,1.253.517.517,0,0,0,.988.129,10.913,10.913,0,0,0,.241-1.25.549.549,0,0,0-.721-.433" transform="translate(-171.436 -269.973)"/>
  </g>
</svg>
